<svg width="29" height="29" viewBox="0 0 29 29" fill="none" xmlns="http://www.w3.org/2000/svg">
<g clip-path="url(#clip0_21_607)">
<path d="M14.4995 29.001C6.50473 29.001 0 22.4961 0 14.501C0 6.50599 6.50473 0 14.4995 0C22.4942 0 29 6.50496 29 14.501C29 22.4971 22.4953 29.001 14.4995 29.001ZM14.4995 2.05528C12.038 2.05528 9.63186 2.78522 7.58525 4.15277C5.53863 5.52033 3.94348 7.46408 3.00152 9.73824C2.05957 12.0124 1.81311 14.5148 2.29331 16.9291C2.77352 19.3433 3.95882 21.5609 5.69933 23.3015C7.43983 25.0421 9.65737 26.2274 12.0715 26.7076C14.4857 27.1879 16.988 26.9414 19.2621 25.9994C21.5362 25.0574 23.4799 23.4622 24.8474 21.4155C26.2149 19.3688 26.9448 16.9626 26.9448 14.501C26.941 11.2014 25.6286 8.03796 23.2954 5.70476C20.9623 3.37155 17.799 2.05909 14.4995 2.05528Z" fill="#231F20"/>
<path d="M19.1775 13.3182H9.58789V15.3735H19.1775V13.3182Z" fill="#231F20"/>
<path d="M23.2574 10.7573H21.2021V18.2427H23.2574V10.7573Z" fill="#231F20"/>
<path d="M20.3814 8.78119H18.3262V20.2198H20.3814V8.78119Z" fill="#231F20"/>
<path d="M7.7388 10.7573H5.68359V18.2427H7.7388V10.7573Z" fill="#231F20"/>
<path d="M5.33255 13.1579H3.27734V16.0713H5.33255V13.1579Z" fill="#231F20"/>
<path d="M25.7222 13.1579H23.667V16.0713H25.7222V13.1579Z" fill="#231F20"/>
<path d="M10.6148 8.78119H8.55957V20.2198H10.6148V8.78119Z" fill="#231F20"/>
</g>
<defs>
<clipPath id="clip0_21_607">
<rect width="29" height="29" fill="white"/>
</clipPath>
</defs>
</svg>
