<svg width="29" height="29" viewBox="0 0 29 29" fill="none" xmlns="http://www.w3.org/2000/svg">
<path d="M14.6415 28.9091C14.5385 25.1475 12.9541 21.5795 10.2343 18.9847C7.48363 16.3366 3.81932 14.8542 0.00488281 14.8463L0.0150776 12.8032C4.35289 12.8131 8.51964 14.4997 11.6473 17.5116C14.7537 20.4768 16.5628 24.5534 16.6794 28.8509L14.6415 28.9091Z" fill="#231F20"/>
<path d="M20.5487 28.8652C20.4602 23.4951 18.2662 18.3756 14.441 14.6134C10.6291 10.8263 5.48115 8.69746 0.113281 8.68838L0.121437 6.64526C6.02218 6.65424 11.6817 8.99299 15.8734 13.1546C20.0793 17.2921 22.4909 22.9222 22.5866 28.8274L20.5487 28.8652Z" fill="#231F20"/>
<path d="M26.9611 28.8958C26.883 21.7654 24.0144 14.9507 18.9725 9.91831C13.919 4.86058 7.22204 2.06968 0.114258 2.04312L0.120375 0C7.76644 0.0224743 14.9762 3.03199 20.413 8.47281C25.8319 13.8806 28.9151 21.2042 28.9991 28.8672L26.9611 28.8958Z" fill="#231F20"/>
<path d="M4.51101 29C3.6197 29.0002 2.74836 28.7355 2.00718 28.2395C1.266 27.7434 0.68829 27.0382 0.347108 26.2131C0.00592738 25.388 -0.083394 24.48 0.0904417 23.6041C0.264277 22.7281 0.693461 21.9235 1.32371 21.2919C1.95396 20.6604 2.75696 20.2303 3.63115 20.0561C4.50534 19.8819 5.41144 19.9714 6.23486 20.3133C7.05829 20.6552 7.76203 21.2341 8.25709 21.9768C8.75214 22.7195 9.01627 23.5926 9.01607 24.4857C9.01445 25.6825 8.5393 26.8298 7.69478 27.676C6.85027 28.5222 5.70533 28.9984 4.51101 29ZM4.51101 22.0136C4.02301 22.0134 3.54592 22.1582 3.14007 22.4297C2.73422 22.7012 2.41784 23.0873 2.23095 23.539C2.04406 23.9907 1.99506 24.4878 2.09014 24.9674C2.18522 25.447 2.42011 25.8876 2.76511 26.2335C3.1101 26.5793 3.5497 26.8149 4.0283 26.9103C4.50691 27.0058 5.00302 26.9569 5.45389 26.7698C5.90475 26.5827 6.29013 26.2659 6.56126 25.8593C6.8324 25.4527 6.97712 24.9747 6.97712 24.4857C6.97631 23.8305 6.71626 23.2023 6.25398 22.7389C5.7917 22.2755 5.16491 22.0146 4.51101 22.0136Z" fill="#231F20"/>
</svg>
