<svg width="25" height="29" viewBox="0 0 25 29" fill="none" xmlns="http://www.w3.org/2000/svg">
<g clip-path="url(#clip0_21_647)">
<path d="M9.48441 29.0041C6.96987 29.0011 4.55916 27.979 2.78112 26.1619C1.00307 24.3449 0.00289556 21.8813 0 19.3117V16.6924H18.9698V19.3066C18.9682 21.8773 17.9685 24.3423 16.1901 26.1605C14.4117 27.9787 12 29.0014 9.48441 29.0041ZM1.98918 18.7252V19.3066C2.01191 21.3229 2.81164 23.2487 4.21489 24.6663C5.61814 26.0839 7.51174 26.879 9.4849 26.879C11.4581 26.879 13.3517 26.0839 14.7549 24.6663C16.1582 23.2487 16.9579 21.3229 16.9806 19.3066V18.7252H1.98918Z" fill="#231F20"/>
<path d="M10.8153 8.60283L9.36816 7.20833C9.64764 6.90341 10.5557 5.79248 10.506 4.16928C10.4652 3.13551 10.0616 2.15127 9.36916 1.39654L10.8143 0C11.8368 1.11742 12.4316 2.57352 12.4902 4.1022C12.5658 6.44603 11.3434 8.0306 10.8153 8.60283Z" fill="#231F20"/>
<path d="M9.43874 15.7299C8.41393 14.612 7.81756 13.1542 7.75888 11.6236C7.68726 9.28587 8.90962 7.69825 9.43774 7.125L10.8849 8.52052C10.6054 8.82544 9.69733 9.93637 9.74706 11.5596C9.78786 12.5933 10.1914 13.5776 10.8839 14.3323L9.43874 15.7299Z" fill="#231F20"/>
<path d="M21.1869 24.4872H17.2891V22.4544H21.1869C21.6634 22.443 22.1167 22.2416 22.4497 21.8931C22.7828 21.5447 22.9693 21.0769 22.9693 20.5898C22.9693 20.1027 22.7828 19.6349 22.4497 19.2864C22.1167 18.938 21.6634 18.7366 21.1869 18.7252H18.7819V16.6924H21.1869C22.1877 16.7089 23.142 17.1268 23.844 17.8559C24.5461 18.585 24.9395 19.5669 24.9395 20.5898C24.9395 21.6127 24.5461 22.5946 23.844 23.3237C23.142 24.0528 22.1877 24.4707 21.1869 24.4872Z" fill="#231F20"/>
</g>
<defs>
<clipPath id="clip0_21_647">
<rect width="25" height="29" fill="white"/>
</clipPath>
</defs>
</svg>
