<svg width="29" height="29" viewBox="0 0 29 29" fill="none" xmlns="http://www.w3.org/2000/svg">
<g clip-path="url(#clip0_21_632)">
<path d="M17.3544 25.5348L5.95996 15.1556H13.7495C14.6065 15.1404 15.4234 14.7893 16.0241 14.1778C16.6249 13.5663 16.9615 12.7434 16.9615 11.8862C16.9615 11.029 16.6249 10.206 16.0241 9.59456C15.4234 8.98307 14.6065 8.63194 13.7495 8.61674V6.56146C15.1489 6.5809 16.4843 7.15045 17.4671 8.14692C18.4498 9.14338 19.0007 10.4867 19.0007 11.8862C19.0007 13.2857 18.4498 14.629 17.4671 15.6254C16.4843 16.6219 15.1489 17.1914 13.7495 17.2109H11.2677L18.7407 24.0159L17.3544 25.5348Z" fill="#231F20"/>
<path d="M22.3658 6.48853H6.63574V8.54379H22.3658V6.48853Z" fill="#231F20"/>
<path d="M22.3658 10.8447H6.63574V12.8999H22.3658V10.8447Z" fill="#231F20"/>
<path d="M14.5 29C6.50496 29 0 22.495 0 14.5C0 6.50496 6.50496 0 14.5 0C22.495 0 29 6.50496 29 14.5C29 22.495 22.495 29 14.5 29ZM14.5 2.05528C12.0387 2.05528 9.63261 2.78515 7.58608 4.15259C5.53956 5.52004 3.94449 7.46364 3.00258 9.73761C2.06067 12.0116 1.81422 14.5138 2.2944 16.9278C2.77458 19.3419 3.95983 21.5593 5.70025 23.2997C7.44068 25.0402 9.65812 26.2254 12.0722 26.7056C14.4862 27.1858 16.9884 26.9393 19.2624 25.9974C21.5364 25.0555 23.48 23.4604 24.8474 21.4139C26.2148 19.3674 26.9447 16.9613 26.9447 14.5C26.9412 11.2005 25.6289 8.03723 23.2958 5.70416C20.9628 3.37109 17.7995 2.05882 14.5 2.05528Z" fill="#231F20"/>
</g>
<defs>
<clipPath id="clip0_21_632">
<rect width="29" height="29" fill="white"/>
</clipPath>
</defs>
</svg>
