<svg width="29" height="29" viewBox="0 0 29 29" fill="none" xmlns="http://www.w3.org/2000/svg">
<g clip-path="url(#clip0_21_696)">
<path d="M7.0014 8.59546L5.00098 8.28165C5.35433 6.00028 6.49446 3.91827 8.22015 2.40304C9.94583 0.887801 12.1462 0.036752 14.4328 7.70442e-05C16.7194 -0.0365979 18.9454 0.74346 20.7179 2.20259C22.4904 3.66171 23.6954 5.70612 24.1204 7.975L22.1301 8.35321C21.7934 6.55833 20.8397 4.94118 19.4372 3.78702C18.0348 2.63286 16.2738 2.01585 14.4647 2.04482C12.6557 2.07378 10.9149 2.74687 9.54947 3.94536C8.184 5.14384 7.28158 6.79071 7.0014 8.59546Z" fill="#231F20"/>
<path d="M13.4927 26.7512C8.65155 26.7512 5.89389 24.575 5.05971 20.0969L5.04655 20.0263L4.94531 17.6999L6.97003 17.6069L7.07126 19.7882C7.73436 23.2349 9.66088 24.7069 13.5007 24.7069L13.4927 26.7512Z" fill="#231F20"/>
<path d="M14.6691 29C14.0346 29 13.4143 28.81 12.8867 28.4541C12.3592 28.0982 11.948 27.5923 11.7051 27.0004C11.4623 26.4085 11.3988 25.7572 11.5226 25.1288C11.6464 24.5004 11.9519 23.9233 12.4006 23.4702C12.8493 23.0172 13.4209 22.7087 14.0432 22.5837C14.6655 22.4587 15.3106 22.5229 15.8968 22.7681C16.483 23.0132 16.9841 23.4284 17.3366 23.9611C17.6891 24.4938 17.8773 25.1201 17.8773 25.7607C17.8762 26.6195 17.5378 27.4428 16.9364 28.0501C16.335 28.6573 15.5196 28.9989 14.6691 29ZM14.6691 24.5658C14.435 24.5658 14.2062 24.6359 14.0116 24.7672C13.817 24.8985 13.6653 25.0851 13.5757 25.3035C13.4862 25.5218 13.4627 25.7621 13.5084 25.9939C13.5541 26.2257 13.6668 26.4386 13.8323 26.6057C13.9978 26.7728 14.2087 26.8866 14.4382 26.9327C14.6678 26.9788 14.9057 26.9552 15.122 26.8647C15.3382 26.7743 15.5231 26.6211 15.6531 26.4246C15.7831 26.2281 15.8525 25.9971 15.8525 25.7607C15.8528 25.6036 15.8224 25.448 15.7631 25.3027C15.7037 25.1574 15.6166 25.0254 15.5067 24.9141C15.3968 24.8029 15.2662 24.7146 15.1225 24.6543C14.9788 24.594 14.8247 24.5629 14.6691 24.5628V24.5658Z" fill="#231F20"/>
<path d="M5.9919 19.9252C5.19852 19.9356 4.41098 19.7868 3.675 19.4875C2.93902 19.1881 2.26925 18.7442 1.70456 18.1814C1.13987 17.6186 0.691503 16.9481 0.385481 16.209C0.0794585 15.4698 -0.078125 14.6766 -0.078125 13.8755C-0.078125 13.0743 0.0794585 12.2812 0.385481 11.542C0.691503 10.8028 1.13987 10.1324 1.70456 9.56961C2.26925 9.00681 2.93902 8.56285 3.675 8.2635C4.41098 7.96414 5.19852 7.81535 5.9919 7.82577H7.01337V19.9252H5.9919ZM4.98866 9.99992C4.13975 10.2241 3.38838 10.726 2.85213 11.4273C2.31587 12.1286 2.02499 12.9895 2.02499 13.8755C2.02499 14.7614 2.31587 15.6224 2.85213 16.3237C3.38838 17.0249 4.13975 17.5269 4.98866 17.751V9.99992Z" fill="#231F20"/>
<path d="M23.0078 19.9252H21.9863V7.82577H23.0078C23.8012 7.81535 24.5887 7.96414 25.3247 8.2635C26.0607 8.56285 26.7305 9.00681 27.2951 9.56961C27.8598 10.1324 28.3082 10.8028 28.6142 11.542C28.9202 12.2812 29.0778 13.0743 29.0778 13.8755C29.0778 14.6766 28.9202 15.4698 28.6142 16.209C28.3082 16.9481 27.8598 17.6186 27.2951 18.1814C26.7305 18.7442 26.0607 19.1881 25.3247 19.4875C24.5887 19.7868 23.8012 19.9356 23.0078 19.9252ZM24.011 9.99992V17.751C24.86 17.5269 25.6113 17.0249 26.1476 16.3237C26.6838 15.6224 26.9747 14.7614 26.9747 13.8755C26.9747 12.9895 26.6838 12.1286 26.1476 11.4273C25.6113 10.726 24.86 10.2241 24.011 9.99992Z" fill="#231F20"/>
</g>
<defs>
<clipPath id="clip0_21_696">
<rect width="29" height="29" fill="white"/>
</clipPath>
</defs>
</svg>
