<svg width="34" height="30" viewBox="0 0 34 30" fill="none" xmlns="http://www.w3.org/2000/svg">
<g clip-path="url(#clip0_21_249)">
<path d="M21.935 13.7074C20.8568 13.7061 19.8232 13.2461 19.0611 12.4283C18.2989 11.6106 17.8706 10.502 17.8701 9.34592V1.20013H19.7459V9.34592C19.7626 9.95628 20.0004 10.5356 20.409 10.9611C20.8175 11.3865 21.3646 11.6244 21.934 11.6244C22.5035 11.6244 23.0506 11.3865 23.4591 10.9611C23.8677 10.5356 24.1055 9.95628 24.1222 9.34592V1.20013H25.998V9.34592C25.9975 10.5016 25.5694 11.6099 24.8077 12.4276C24.046 13.2453 23.0128 13.7056 21.935 13.7074Z" fill="#231F20"/>
<path d="M22.8719 1.20013H20.9961V18.4913H22.8719V1.20013Z" fill="#231F20"/>
<path d="M24.1773 30H19.6426V17.4857H24.1773V30ZM21.5184 27.9887H22.3015V19.497H21.5184V27.9887Z" fill="#231F20"/>
<path d="M11.0649 13.5385C9.98717 13.5371 8.95398 13.0775 8.19194 12.2604C7.4299 11.4433 7.00124 10.3355 7 9.17996V6.06244H8.8758V9.17996C8.88766 9.7942 9.12355 10.379 9.53288 10.8089C9.9422 11.2388 10.4924 11.4796 11.0653 11.4796C11.6383 11.4796 12.1885 11.2388 12.5978 10.8089C13.0071 10.379 13.243 9.7942 13.2549 9.17996V6.06244H15.1307V9.17996C15.1294 10.3357 14.7006 11.4437 13.9384 12.2608C13.1761 13.0779 12.1427 13.5374 11.0649 13.5385Z" fill="#231F20"/>
<path d="M15.1307 7.46833H13.2549V5.35646C13.243 4.74223 13.0071 4.15744 12.5978 3.72754C12.1885 3.29763 11.6383 3.05686 11.0653 3.05686C10.4924 3.05686 9.9422 3.29763 9.53288 3.72754C9.12355 4.15744 8.88766 4.74223 8.8758 5.35646V7.46833H7V5.35646C7.01621 4.21185 7.45166 3.12001 8.21229 2.31672C8.97293 1.51343 9.99771 1.06317 11.0653 1.06317C12.133 1.06317 13.1577 1.51343 13.9184 2.31672C14.679 3.12001 15.1144 4.21185 15.1307 5.35646V7.46833Z" fill="#231F20"/>
<path d="M12.0028 12.204H10.127V18.4913H12.0028V12.204Z" fill="#231F20"/>
<path d="M13.3082 30H8.77344V17.4857H13.3082V30ZM10.6492 27.9887H11.4324V19.497H10.6492V27.9887Z" fill="#231F20"/>
</g>
<defs>
<clipPath id="clip0_21_249">
<rect width="19" height="29" fill="white" transform="translate(7 1)"/>
</clipPath>
</defs>
</svg>
