<svg width="24" height="29" viewBox="0 0 24 29" fill="none" xmlns="http://www.w3.org/2000/svg">
<g clip-path="url(#clip0_21_604)">
<path d="M23.999 29H0V5.19318H23.999V29ZM1.97767 26.9718H22.0213V7.22136H1.97767V26.9718Z" fill="#231F20"/>
<path d="M20.1959 8.41898H18.2182C18.2182 6.72457 17.5619 5.09956 16.3936 3.90143C15.2253 2.7033 13.6408 2.0302 11.9886 2.0302C10.3364 2.0302 8.75183 2.7033 7.58354 3.90143C6.41526 5.09956 5.75892 6.72457 5.75892 8.41898H3.78125C3.78125 6.18666 4.64595 4.04577 6.18512 2.46729C7.7243 0.888799 9.81186 0.00201416 11.9886 0.00201416C14.1653 0.00201416 16.2529 0.888799 17.792 2.46729C19.3312 4.04577 20.1959 6.18666 20.1959 8.41898Z" fill="#231F20"/>
</g>
<defs>
<clipPath id="clip0_21_604">
<rect width="24" height="29" fill="white"/>
</clipPath>
</defs>
</svg>
