<svg width="29" height="29" viewBox="0 0 29 29" fill="none" xmlns="http://www.w3.org/2000/svg">
<g clip-path="url(#clip0_21_625)">
<path d="M14.5173 12.6715L12.2832 8.73546H10.5511L8.39155 12.5427L6.2208 8.73546H5.72693C4.68728 8.73438 3.69052 8.32117 2.95537 7.58652C2.22023 6.85186 1.80675 5.85577 1.80566 4.81681V3.91762C1.80702 2.87884 2.22062 1.88301 2.95573 1.14858C3.69085 0.414144 4.68746 0.00108146 5.72693 0H23.1155C24.155 0.00108146 25.1516 0.414144 25.8867 1.14858C26.6218 1.88301 27.0354 2.87884 27.0367 3.91762V4.81681C27.0354 5.85569 26.6218 6.85162 25.8867 7.58622C25.1517 8.32082 24.155 8.73411 23.1155 8.73546H21.9089L19.9222 12.5805L17.8916 8.73546H16.4243L14.5173 12.6715ZM5.72386 2.04464C5.2273 2.04599 4.75147 2.24379 4.40043 2.59478C4.0494 2.94577 3.85173 3.42138 3.85065 3.91762V4.81681C3.85119 5.31393 4.04905 5.79054 4.4008 6.14206C4.75255 6.49358 5.22948 6.6913 5.72693 6.69184H7.40996L8.39155 8.40541L9.36497 6.69081H13.4785L14.3783 8.27666L15.14 6.69184H19.1277L19.9059 8.16427L20.6615 6.69184H23.1155C23.6129 6.6913 24.0899 6.49358 24.4416 6.14206C24.7934 5.79054 24.9912 5.31393 24.9918 4.81681V3.91762C24.9909 3.42068 24.793 2.94433 24.4412 2.59304C24.0895 2.24174 23.6128 2.04416 23.1155 2.04362L5.72386 2.04464Z" fill="#231F20"/>
<path d="M14.7111 22.2734C13.8461 22.2736 13.0006 22.0175 12.2813 21.5373C11.5621 21.0571 11.0016 20.3746 10.6706 19.576C10.3397 18.7774 10.2532 17.8986 10.4221 17.0509C10.591 16.2032 11.0077 15.4245 11.6196 14.8136C12.2314 14.2026 13.0108 13.7867 13.8592 13.6184C14.7077 13.4502 15.5869 13.5373 16.3858 13.8686C17.1847 14.1999 17.8674 14.7605 18.3473 15.4796C18.8273 16.1987 19.0831 17.0439 19.0823 17.9083C19.0801 19.0658 18.6188 20.1754 17.7994 20.9936C16.98 21.8118 15.8695 22.2721 14.7111 22.2734ZM14.7111 15.5796C14.2509 15.5794 13.801 15.7155 13.4182 15.9708C13.0354 16.2261 12.737 16.589 12.5606 17.0138C12.3842 17.4386 12.3378 17.906 12.4273 18.3572C12.5167 18.8083 12.7379 19.2228 13.0631 19.5482C13.3882 19.8737 13.8026 20.0955 14.2538 20.1857C14.7051 20.2759 15.1729 20.2303 15.5983 20.0548C16.0237 19.8793 16.3874 19.5817 16.6435 19.1996C16.8996 18.8175 17.0367 18.3681 17.0373 17.9083C17.0375 17.2913 16.7927 16.6994 16.3565 16.2628C15.9203 15.8261 15.3285 15.5804 14.7111 15.5796Z" fill="#231F20"/>
<path d="M5.63963 24.2915C4.9736 24.2919 4.32241 24.0949 3.76843 23.7254C3.21444 23.3559 2.78256 22.8305 2.5274 22.2157C2.27224 21.6009 2.20527 20.9243 2.33496 20.2715C2.46465 19.6186 2.78517 19.0189 3.25598 18.5481C3.72679 18.0773 4.32674 17.7566 4.97995 17.6266C5.63315 17.4966 6.31026 17.5632 6.92564 17.8178C7.54101 18.0724 8.06699 18.5037 8.43706 19.057C8.80713 19.6104 9.00466 20.2611 9.00466 20.9267C9.00277 21.8181 8.6477 22.6726 8.0171 23.3031C7.3865 23.9337 6.5317 24.289 5.63963 24.2915ZM5.63963 19.6065C5.37802 19.6061 5.12216 19.6832 4.90446 19.8282C4.68675 19.9732 4.51698 20.1794 4.41663 20.4209C4.31628 20.6623 4.28986 20.9281 4.34073 21.1845C4.39159 21.441 4.51745 21.6766 4.70237 21.8615C4.88728 22.0465 5.12295 22.1724 5.37953 22.2235C5.63612 22.2745 5.90208 22.2483 6.14376 22.1482C6.38544 22.0481 6.59197 21.8786 6.73721 21.6612C6.88245 21.4437 6.95987 21.1881 6.95967 20.9267C6.95913 20.5769 6.81991 20.2415 6.5725 19.9941C6.3251 19.7467 5.98965 19.6073 5.63963 19.6065Z" fill="#231F20"/>
<path d="M9.16453 29H0.028538L0.00195312 27.9782C0.00195312 27.9414 0.00195312 27.9036 0.00195312 27.8658C0.00201545 26.7482 0.335959 25.656 0.961004 24.7292C1.58605 23.8024 2.47373 23.0832 3.51034 22.6637C4.54695 22.2442 5.68528 22.1435 6.77951 22.3745C7.87374 22.6055 8.87403 23.1578 9.65226 23.9604L10.1768 24.502L9.81279 25.1631C9.36826 25.9781 9.13552 26.8916 9.1359 27.8198C9.1359 27.8454 9.1359 27.8699 9.1359 27.8944V27.9608L9.16453 29ZM2.16146 26.9564H7.13897C7.21844 26.261 7.39322 25.5799 7.6584 24.9322C7.05923 24.5129 6.34483 24.2895 5.61341 24.2925C4.8247 24.2944 4.0587 24.5565 3.43445 25.0382C2.81021 25.52 2.36269 26.1943 2.16146 26.9564Z" fill="#231F20"/>
<path d="M28.9723 29H20.188L20.2167 27.8872C20.2167 27.8617 20.2167 27.8372 20.2167 27.8116C20.2178 26.8118 19.9475 25.8304 19.4345 24.972L19.002 24.2506L19.6277 23.6876C20.4351 22.9626 21.4353 22.4869 22.5074 22.318C23.5795 22.1491 24.6777 22.2942 25.6691 22.7357C26.6605 23.1772 27.5026 23.8963 28.0937 24.806C28.6848 25.7157 28.9996 26.777 28.9999 27.8617C28.9999 27.8985 28.9999 27.9353 28.9999 27.9731V28.0027L28.9723 29ZM22.2146 26.9564H26.8384C26.6983 26.4285 26.4392 25.9398 26.0808 25.5275C25.7225 25.1153 25.2744 24.7905 24.771 24.5781C24.2676 24.3657 23.7222 24.2714 23.1766 24.3023C22.631 24.3332 22.0998 24.4885 21.6236 24.7564C21.9307 25.4557 22.1299 26.1974 22.2146 26.9564Z" fill="#231F20"/>
<path d="M22.2338 29H7.11931L7.09375 27.9557C7.09375 27.908 7.09375 27.86 7.09375 27.8117C7.09351 26.1524 7.63799 24.539 8.64367 23.2188C9.64935 21.8986 11.0607 20.9445 12.6611 20.503C14.2616 20.0615 15.9628 20.157 17.5038 20.7747C19.0448 21.3924 20.3404 22.4983 21.1919 23.9226C21.8953 25.0981 22.2667 26.4421 22.2665 27.8117C22.2665 27.8607 22.2665 27.9087 22.2665 27.9568V28.0038L22.2338 29ZM9.20213 26.9564H20.15C20.041 26.2552 19.798 25.5815 19.4342 24.972C18.8501 23.9943 17.9786 23.2203 16.9383 22.7555C15.8981 22.2908 14.7397 22.1578 13.6211 22.3747C12.5025 22.5917 11.478 23.148 10.6873 23.9678C9.89649 24.7877 9.3779 25.8313 9.20213 26.9564Z" fill="#231F20"/>
</g>
<defs>
<clipPath id="clip0_21_625">
<rect width="29" height="29" fill="white"/>
</clipPath>
</defs>
</svg>
