<svg width="22" height="29" viewBox="0 0 22 29" fill="none" xmlns="http://www.w3.org/2000/svg">
<path d="M15.7413 16.0372H6.27199C5.60915 16.0364 4.9737 15.775 4.5051 15.3103C4.03649 14.8456 3.77301 14.2155 3.77246 13.5585V3.66192C3.77246 1.86775 4.73413 1.0054 5.5412 0.596705C6.34826 0.18801 7.38725 0.00512695 8.91892 0.00512695H13.0955C14.6282 0.00512695 15.6723 0.18801 16.4732 0.596705C17.274 1.0054 18.2429 1.87286 18.2429 3.66192V13.5585C18.2424 14.2159 17.9786 14.8462 17.5096 15.311C17.0405 15.7757 16.4045 16.0369 15.7413 16.0372ZM8.91788 2.0394C6.06481 2.0394 5.8329 2.77302 5.8329 3.65784V13.5544C5.8345 13.6693 5.88127 13.7791 5.96327 13.8604C6.04528 13.9417 6.15603 13.9881 6.27199 13.9897H15.7413C15.8573 13.9881 15.9681 13.9417 16.0501 13.8604C16.1321 13.7791 16.1788 13.6693 16.1804 13.5544V3.65784C16.1804 2.77302 15.9485 2.0394 13.0944 2.0394H8.91788Z" fill="#231F20"/>
<path d="M12.0371 19.6041H9.97559V27.0199H12.0371V19.6041Z" fill="#231F20"/>
<path d="M21.9697 27.5522H19.9082V29H21.9697V27.5522Z" fill="#231F20"/>
<path d="M2.06147 27.5522H0V29H2.06147V27.5522Z" fill="#231F20"/>
<path d="M12.0371 27.5522H9.97559V29H12.0371V27.5522Z" fill="#231F20"/>
<path d="M2.6601 7.57111H0.598633V15.5325H2.6601V7.57111Z" fill="#231F20"/>
<path d="M21.413 7.57111H19.3516V15.5325H21.413V7.57111Z" fill="#231F20"/>
<path d="M18.3293 17.672H3.68359V19.7155H18.3293V17.672Z" fill="#231F20"/>
<path d="M22 27.0189H19.9385V24.8231H2.06147V27.0189H0V22.7797H22V27.0189Z" fill="#231F20"/>
</svg>
