<svg width="29" height="29" viewBox="0 0 29 29" fill="none" xmlns="http://www.w3.org/2000/svg">
<g clip-path="url(#clip0_21_616)">
<path d="M6.43036 0.000348013L4.81348 1.25238L18.9402 19.5912L20.5571 18.3392L6.43036 0.000348013Z" fill="#231F20"/>
<path d="M22.9154 29C22.6586 28.9998 22.402 28.9834 22.1472 28.9508C20.9527 28.7993 19.8298 28.2961 18.9205 27.5048C18.0112 26.7134 17.3564 25.6695 17.0388 24.5051C16.7212 23.3406 16.7552 22.1079 17.1364 20.9628C17.5175 19.8177 18.2288 18.8116 19.1802 18.0717C20.1317 17.3319 21.2806 16.8916 22.4816 16.8064C23.6827 16.7212 24.882 16.9949 25.9278 17.5931C26.9737 18.1912 27.8191 19.0869 28.3573 20.1668C28.8955 21.2467 29.1022 22.4623 28.9513 23.66C28.7638 25.1333 28.0477 26.4877 26.937 27.4704C25.8262 28.4531 24.3967 28.9968 22.9154 29ZM22.9082 18.8383C21.8579 18.8398 20.8492 19.2509 20.0959 19.9848C19.3425 20.7186 18.9034 21.7176 18.8717 22.7702C18.8399 23.8229 19.2178 24.8467 19.9256 25.6249C20.6333 26.4031 21.6152 26.8746 22.6636 26.9398C23.712 27.005 24.7445 26.6586 25.5427 25.974C26.3409 25.2894 26.8421 24.3203 26.9402 23.2718C27.0384 22.2233 26.7258 21.1776 26.0686 20.3561C25.4114 19.5345 24.4611 19.0016 23.419 18.8701C23.2496 18.8489 23.079 18.8382 22.9082 18.8383Z" fill="#231F20"/>
<path d="M22.57 0.000560553L8.44336 18.3394L10.0602 19.5914L24.1869 1.25259L22.57 0.000560553Z" fill="#231F20"/>
<path d="M6.07706 29C4.49117 28.9992 2.9678 28.3799 1.82926 27.273C0.69071 26.1662 0.0263115 24.6586 -0.0233672 23.0694C-0.073046 21.4801 0.495893 19.9339 1.56307 18.7577C2.63025 17.5815 4.11195 16.8678 5.69467 16.7674C7.2774 16.667 8.83698 17.188 10.0434 18.22C11.2499 19.252 12.0086 20.7141 12.159 22.2969C12.3094 23.8798 11.8397 25.4592 10.8493 26.7011C9.85893 27.9429 8.42552 28.7498 6.85237 28.9508C6.59521 28.9835 6.33626 28.9999 6.07706 29ZM6.09238 18.8383C5.92164 18.8382 5.75106 18.8488 5.58164 18.8701C4.5171 19.005 3.54962 19.5584 2.89199 20.4084C2.23436 21.2585 1.94043 22.3357 2.07487 23.403C2.17236 24.1774 2.49062 24.9072 2.99147 25.5048C3.49232 26.1024 4.15449 26.5424 4.89855 26.7721C5.64262 27.0018 6.43697 27.0114 7.18633 26.7997C7.93569 26.588 8.60823 26.1641 9.12328 25.5787C9.63832 24.9934 9.974 24.2715 10.09 23.4997C10.2061 22.7278 10.0976 21.9388 9.7775 21.2273C9.45744 20.5157 8.93942 19.9118 8.28559 19.4881C7.63176 19.0644 6.86989 18.8388 6.09136 18.8383H6.09238Z" fill="#231F20"/>
</g>
<defs>
<clipPath id="clip0_21_616">
<rect width="29" height="29" fill="white"/>
</clipPath>
</defs>
</svg>
