<svg width="28" height="29" viewBox="0 0 28 29" fill="none" xmlns="http://www.w3.org/2000/svg">
<g clip-path="url(#clip0_21_683)">
<path d="M13.9998 3.49995C13.0865 3.49887 12.2108 3.12978 11.5649 2.47365C10.9191 1.81751 10.5557 0.927913 10.5547 0L12.5583 0C12.5585 0.388328 12.7105 0.760673 12.9808 1.03526C13.2511 1.30985 13.6176 1.46423 13.9998 1.4645C14.3821 1.46423 14.7486 1.30985 15.0189 1.03526C15.2892 0.760673 15.4412 0.388328 15.4414 0L17.445 0C17.4439 0.927913 17.0806 1.81751 16.4348 2.47365C15.7889 3.12978 14.9132 3.49887 13.9998 3.49995Z" fill="#231F20"/>
<path d="M14 29.0051C7.62562 29.0051 3.05746 27.7564 0.910626 26.5921L0 26.0995L12.7117 3.50608C12.8414 3.27531 13.029 3.08349 13.2552 2.95008C13.4815 2.81667 13.7384 2.7464 14 2.7464C14.2616 2.7464 14.5185 2.81667 14.7448 2.95008C14.971 3.08349 15.1586 3.27531 15.2883 3.50608L28.002 26.0995L27.0914 26.5921C24.9415 27.7564 20.3744 29.0051 14 29.0051ZM2.79499 25.2395C4.96386 26.1148 8.8498 26.9697 14 26.9697C19.1502 26.9697 23.0361 26.1127 25.205 25.2395L14 5.31253L2.79499 25.2395Z" fill="#231F20"/>
<path d="M26.1472 26.5921C24.5443 25.726 20.1635 23.7109 14.0005 23.7109C7.83745 23.7109 3.45262 25.726 1.85577 26.5921L0.913086 24.7968C2.64217 23.8585 7.38465 21.6775 14.0005 21.6775C20.6163 21.6775 25.3588 23.8605 27.0898 24.7988L26.1472 26.5921Z" fill="#231F20"/>
<path d="M14.0001 20.8226C12.9815 20.8213 12.0051 20.4096 11.2849 19.678C10.5647 18.9463 10.1595 17.9544 10.1582 16.9197V14.4588H12.1618V16.9197C12.1618 17.415 12.3555 17.89 12.7002 18.2402C13.0449 18.5904 13.5125 18.7872 14.0001 18.7872C14.4876 18.7872 14.9552 18.5904 15.2999 18.2402C15.6447 17.89 15.8384 17.415 15.8384 16.9197V14.4588H17.8419V16.9197C17.8406 17.9544 17.4354 18.9463 16.7152 19.678C15.995 20.4096 15.0186 20.8213 14.0001 20.8226Z" fill="#231F20"/>
<path d="M15.0016 20.3137H12.998V25.4441H15.0016V20.3137Z" fill="#231F20"/>
<path d="M15.5449 14.4913V11.6061H12.7049V14.4913H15.5449Z" fill="#231F20"/>
</g>
<defs>
<clipPath id="clip0_21_683">
<rect width="28" height="29" fill="white"/>
</clipPath>
</defs>
</svg>
