<svg width="93" height="92" viewBox="0 0 93 92" fill="none" xmlns="http://www.w3.org/2000/svg">
<g clip-path="url(#clip0_21_139)">
<path d="M73.2532 41.904C72.0096 42.0959 74.6033 50.0789 71.7582 60.2027C70.2926 65.4182 68.7491 70.9114 64.3859 75.8554C63.2894 77.098 60.7392 79.7505 59.5777 83.997C59.416 84.5788 58.3476 88.5149 59.6385 89.2835C60.9134 90.0426 63.8245 87.3377 64.7799 86.4516C66.9868 84.4029 69.5253 81.3255 73.3034 72.1111C75.537 66.6632 76.6641 63.8648 77.1222 60.2329C77.7699 55.0955 77.0226 51.2505 76.5996 49.4903C75.866 46.4371 74.2081 41.7569 73.2532 41.904Z" fill="#034A84"/>
<path d="M73.2532 41.904C72.0096 42.0959 74.6032 50.0789 71.7582 60.2027C70.2925 65.4182 68.749 70.9114 64.3859 75.8554C63.2894 77.098 60.7391 79.7505 59.5776 83.997C59.416 84.5788 58.3476 88.5149 59.6384 89.2835C60.6477 89.8842 62.6819 88.3157 63.9618 87.1914C63.8639 85.831 63.9392 84.4667 64.186 83.1305C64.596 80.9162 65.3869 79.307 66.0415 77.9997C67.7426 74.5972 68.6404 74.7174 70.3216 71.5763C72.1392 68.1793 72.9304 64.6017 73.0138 64.2103C73.5679 61.619 73.4184 60.4876 74.4504 59.1805C75.2346 58.1796 76.307 57.5971 77.3603 57.2418C77.4584 54.6408 77.2031 52.0328 76.6012 49.4868C75.8659 46.437 74.208 41.7569 73.2532 41.904Z" fill="#003E68"/>
<path d="M56.2214 43.5428C54.9002 43.9652 54.8933 47.9944 55.3826 50.748C56.3568 56.2323 59.6344 58.5305 58.5255 60.3105C57.6886 61.6573 55.595 60.6835 51.865 62.9396C50.871 63.5405 49.4115 64.4454 49.5377 65.4717C49.6639 66.4981 51.2911 67.0655 51.4608 67.123C53.4431 67.7947 55.1387 66.7756 57.3277 65.9141C63.0374 63.6668 65.064 65.2589 66.3191 63.4551C67.7067 61.462 66.1142 58.253 63.8075 53.6055C63.0565 52.0912 58.3778 42.8562 56.2214 43.5428Z" fill="#003E68"/>
<path d="M33.6349 17.631C29.7487 14.3269 27.7749 11.8479 24.8226 12.0105C24.4652 12.0298 22.9893 12.107 22.5196 13.0027C21.7601 14.4513 24.1021 17.2148 26.0123 18.7594C27.6111 20.052 28.6504 20.2838 30.3773 21.1762C33.7523 22.9227 35.3406 24.911 37.2426 26.6868C43.0059 32.0644 51.5416 35.3737 52.2297 34.428C52.9872 33.3874 44.9249 26.274 40.5551 22.7631C36.3892 19.4168 36.8708 20.3818 33.6349 17.631Z" fill="#034A84"/>
<path d="M37.1818 6.60189C32.0184 3.91253 29.2439 2.95017 28.428 3.30719C27.4608 3.73168 26.7817 5.27303 27.1985 6.3969C27.8581 8.18782 30.8302 7.73657 34.9654 9.73158C37.1015 10.7618 37.4062 11.4112 39.9624 13.2124C44.983 16.7492 51.6209 19.754 52.3135 18.8052C52.9232 17.9732 49.0781 13.8491 45.3629 11.1589C43.9187 10.1118 41.6724 8.94156 37.1818 6.60189Z" fill="#003E68"/>
<path d="M43.5738 8.56367C40.2781 9.12126 38.0623 12.136 37.9298 12.3159C37.4796 12.9468 36.2519 14.8283 36.2108 17.4532C36.1822 19.2994 36.7477 21.0761 38.7723 24.2226C41.1958 27.9886 43.4566 30.2154 45.2854 32.1869C46.236 33.2114 49.969 37.288 53.0915 42.087C54.9112 44.8786 58.5315 51.0089 62.9642 58.1031C63.4667 58.9069 64.2683 60.1541 65.7378 60.6591C69.6115 61.9879 74.2568 56.8208 74.59 56.441C77.9229 52.6495 78.167 48.1583 78.1674 46.5749C78.1675 44.0223 77.4967 42.2252 76.1519 38.7333C74.6835 34.9147 72.732 29.8419 68.2859 25.1527C66.4418 23.2076 66.2034 23.475 60.3224 19.0854C49.5455 11.0424 47.3671 7.92248 43.5738 8.56367Z" fill="#00558E"/>
<path d="M47.577 29.1379C46.1055 27.0662 43.0273 25.9676 40.0125 22.8104C37.6732 20.3659 36.7053 18.7849 36.2274 17.0926C36.2212 17.2103 36.2155 17.3294 36.2143 17.4504C36.1857 19.2967 36.7511 21.0734 38.7757 24.2198C41.1991 27.9859 43.46 30.2127 45.2887 32.1842C46.2393 33.2087 49.9723 37.2852 53.0948 42.0843C54.9144 44.8759 58.5347 51.0062 62.9674 58.1004C63.4699 58.9042 64.2715 60.1514 65.741 60.6564C69.6147 61.9852 74.26 56.8181 74.5932 56.4382C77.5319 53.0959 78.069 49.212 78.1551 47.2529C77.1569 49.2016 70.1923 60.9884 47.577 29.1379Z" fill="#034A84"/>
<path d="M59.9872 48.7632C58.0969 50.2336 58.4785 55.9861 60.7455 59.8843C61.7183 61.5567 63.125 63.0353 62.6188 64.6157C62.2476 65.7739 61.0245 66.441 60.1282 66.9255C58.3227 67.9086 57.6351 67.4335 55.7971 68.3732C54.9542 68.8048 53.0427 69.7829 53.0318 71.2241C53.0254 72.078 53.6869 72.9647 54.4885 73.3813C55.6717 73.9953 56.9496 73.4763 61.6982 71.0302C67.0653 68.2668 68.0925 67.5617 68.6794 66.134C69.2379 64.7886 68.6864 64.5432 69.1952 62.5466C70.1067 58.9501 72.2647 58.3019 72.4242 56.4879C72.7696 52.4526 62.8239 46.5557 59.9872 48.7632Z" fill="#034A84"/>
<path d="M43.574 8.56367C40.2783 9.12127 38.0626 12.136 37.9301 12.316C37.4798 12.9469 36.2521 14.8283 36.2111 17.4532C36.1825 19.2995 36.7479 21.0762 38.7725 24.2227C39.6425 25.5773 40.5932 26.8806 41.6195 28.1257C47.0399 25.1961 50.3558 20.541 50.4905 15.8734C50.5481 13.9482 50.0636 12.1564 49.3234 10.5653C46.9619 8.86248 45.4701 8.2433 43.574 8.56367Z" fill="#034A84"/>
<path d="M45.1278 7.83155C43.0826 7.28906 41.3921 7.7401 40.6531 7.94704C39.475 8.28369 38.3795 8.8464 37.4288 9.60316C36.8301 10.0795 35.6109 11.0702 34.8633 12.8526C34.4321 13.876 34.2305 14.9823 34.2722 16.097C34.3801 18.367 35.6287 21.501 38.356 22.5747C40.1043 23.2631 41.7254 22.8136 42.7777 22.5207C45.4957 21.7674 49.353 19.4076 49.8688 15.3702C50.1232 13.3903 49.6262 10.5954 47.6578 9.01655C46.6948 8.24635 45.6332 7.96548 45.1278 7.83155Z" fill="#00558E"/>
<path d="M33.519 15.1037C31.9047 15.441 31.6667 15.5617 31.5852 15.7936C31.3125 16.56 32.9968 17.8439 34.1253 18.4535C34.9837 18.9163 35.6317 19.2661 36.262 19.0509C37.671 18.5684 38.1307 15.5434 37.0969 14.7175C36.7492 14.4373 35.6671 14.6555 33.519 15.1037Z" fill="#056093"/>
<path d="M38.5914 5.49646C37.9296 6.00026 38.7266 8.06965 39.3494 9.17237C39.6816 9.76219 39.8556 10.0608 40.2214 10.2833C41.6499 11.1533 44.3643 9.90434 44.4183 8.762C44.4552 7.96734 43.2049 7.33602 41.0309 6.2369C39.6805 5.55302 38.9719 5.20455 38.5914 5.49646Z" fill="#056093"/>
<path d="M55.1672 20.7718C54.9854 21.0957 61.4302 24.1308 65.0815 29.6536C65.7421 30.6576 66.3128 31.7156 66.787 32.8151C66.9998 33.3224 67.8718 35.48 68.2779 38.838C68.654 41.941 68.2414 42.8431 69.1363 43.7978C70.0905 44.8146 71.928 45.2474 72.9539 44.5868C74.6883 43.4629 73.6073 39.493 73.2723 38.2664C72.3798 34.9908 70.6301 32.8691 68.3502 30.1637C66.931 28.4801 64.7911 25.9799 61.2363 23.6501C58.1813 21.6519 55.2851 20.563 55.1672 20.7718Z" fill="#056093"/>
</g>
<defs>
<clipPath id="clip0_21_139">
<rect width="68" height="71" fill="white" transform="translate(0 61.7267) rotate(-65.1958)"/>
</clipPath>
</defs>
</svg>
