<svg width="143" height="52" viewBox="0 0 143 52" fill="none" xmlns="http://www.w3.org/2000/svg">
<path d="M54.5266 39.9943C54.1676 39.9943 53.8425 39.9165 53.5513 39.7607C53.2635 39.6015 53.0366 39.3831 52.8706 39.1054C52.7081 38.8277 52.6268 38.5145 52.6268 38.1657C52.6268 37.8169 52.7098 37.5037 52.8757 37.226C53.0417 36.9483 53.2685 36.7316 53.5564 36.5758C53.8476 36.4166 54.1727 36.337 54.5317 36.337C54.8229 36.337 55.0887 36.3878 55.3292 36.4894C55.5696 36.591 55.7728 36.7383 55.9387 36.9314L55.512 37.3326C55.2547 37.055 54.938 36.9161 54.5621 36.9161C54.3183 36.9161 54.0999 36.9703 53.9069 37.0787C53.7139 37.1836 53.5632 37.3309 53.4548 37.5206C53.3464 37.7102 53.2922 37.9253 53.2922 38.1657C53.2922 38.4061 53.3464 38.6212 53.4548 38.8108C53.5632 39.0004 53.7139 39.1494 53.9069 39.2578C54.0999 39.3628 54.3183 39.4153 54.5621 39.4153C54.938 39.4153 55.2547 39.2747 55.512 38.9937L55.9387 39.4C55.7728 39.5931 55.5679 39.7404 55.3241 39.842C55.0836 39.9435 54.8178 39.9943 54.5266 39.9943ZM58.158 39.9943C57.7957 39.9943 57.4689 39.9165 57.1777 39.7607C56.8865 39.6015 56.6579 39.3831 56.4919 39.1054C56.326 38.8243 56.243 38.5111 56.243 38.1657C56.243 37.8203 56.326 37.5087 56.4919 37.2311C56.6579 36.95 56.8865 36.7316 57.1777 36.5758C57.4689 36.4166 57.7957 36.337 58.158 36.337C58.5204 36.337 58.8472 36.4166 59.1384 36.5758C59.4296 36.7316 59.6582 36.9483 59.8241 37.226C59.9901 37.5037 60.073 37.8169 60.073 38.1657C60.073 38.5145 59.9901 38.8277 59.8241 39.1054C59.6582 39.3831 59.4296 39.6015 59.1384 39.7607C58.8472 39.9165 58.5204 39.9943 58.158 39.9943ZM58.158 39.4153C58.3951 39.4153 58.6084 39.3628 58.7981 39.2578C58.9877 39.1494 59.1367 39.0004 59.2451 38.8108C59.3534 38.6178 59.4076 38.4027 59.4076 38.1657C59.4076 37.9286 59.3534 37.7153 59.2451 37.5257C59.1367 37.3326 58.9877 37.1836 58.7981 37.0787C58.6084 36.9703 58.3951 36.9161 58.158 36.9161C57.921 36.9161 57.7077 36.9703 57.518 37.0787C57.3284 37.1836 57.1794 37.3326 57.071 37.5257C56.9626 37.7153 56.9085 37.9286 56.9085 38.1657C56.9085 38.4027 56.9626 38.6178 57.071 38.8108C57.1794 39.0004 57.3284 39.1494 57.518 39.2578C57.7077 39.3628 57.921 39.4153 58.158 39.4153ZM60.773 36.3878H61.4333V39.3848H63.2925V39.9435H60.773V36.3878ZM63.8138 36.3878H64.4741V39.3848H66.3333V39.9435H63.8138V36.3878ZM69.5214 39.3899V39.9435H66.8546V36.3878H69.4502V36.9415H67.5149V37.866H69.2318V38.4095H67.5149V39.3899H69.5214ZM71.8884 39.9943C71.5294 39.9943 71.2044 39.9165 70.9131 39.7607C70.6253 39.6015 70.3984 39.3831 70.2325 39.1054C70.0699 38.8277 69.9886 38.5145 69.9886 38.1657C69.9886 37.8169 70.0716 37.5037 70.2375 37.226C70.4035 36.9483 70.6304 36.7316 70.9182 36.5758C71.2094 36.4166 71.5345 36.337 71.8935 36.337C72.1847 36.337 72.4505 36.3878 72.691 36.4894C72.9314 36.591 73.1346 36.7383 73.3005 36.9314L72.8738 37.3326C72.6165 37.055 72.2998 36.9161 71.924 36.9161C71.6801 36.9161 71.4617 36.9703 71.2687 37.0787C71.0757 37.1836 70.925 37.3309 70.8166 37.5206C70.7082 37.7102 70.6541 37.9253 70.6541 38.1657C70.6541 38.4061 70.7082 38.6212 70.8166 38.8108C70.925 39.0004 71.0757 39.1494 71.2687 39.2578C71.4617 39.3628 71.6801 39.4153 71.924 39.4153C72.2998 39.4153 72.6165 39.2747 72.8738 38.9937L73.3005 39.4C73.1346 39.5931 72.9297 39.7404 72.6859 39.842C72.4455 39.9435 72.1796 39.9943 71.8884 39.9943ZM74.6149 36.9466H73.4364V36.3878H76.4537V36.9466H75.2752V39.9435H74.6149V36.9466ZM76.9492 36.3878L77.6096 36.3878V39.9435H76.9492V36.3878ZM81.7975 36.3878L80.2482 39.9435L79.598 39.9435L78.0437 36.3878H78.7599L79.9434 39.1308L81.1371 36.3878H81.7975ZM84.8394 39.3899V39.9435H82.1727V36.3878H84.7683V36.9415H82.833V37.866H84.5499V38.4095H82.833V39.3899H84.8394ZM54.5266 44.9943C54.1676 44.9943 53.8425 44.9165 53.5513 44.7607C53.2635 44.6015 53.0366 44.3831 52.8706 44.1054C52.7081 43.8277 52.6268 43.5145 52.6268 43.1657C52.6268 42.8169 52.7098 42.5037 52.8757 42.226C53.0417 41.9483 53.2685 41.7316 53.5564 41.5758C53.8476 41.4166 54.1727 41.337 54.5317 41.337C54.8229 41.337 55.0887 41.3878 55.3292 41.4894C55.5696 41.591 55.7728 41.7383 55.9387 41.9314L55.512 42.3326C55.2547 42.055 54.938 41.9161 54.5621 41.9161C54.3183 41.9161 54.0999 41.9703 53.9069 42.0787C53.7139 42.1836 53.5632 42.3309 53.4548 42.5206C53.3464 42.7102 53.2922 42.9253 53.2922 43.1657C53.2922 43.4061 53.3464 43.6212 53.4548 43.8108C53.5632 44.0004 53.7139 44.1494 53.9069 44.2578C54.0999 44.3628 54.3183 44.4153 54.5621 44.4153C54.938 44.4153 55.2547 44.2747 55.512 43.9937L55.9387 44.4C55.7728 44.5931 55.5679 44.7404 55.3241 44.842C55.0836 44.9435 54.8178 44.9943 54.5266 44.9943ZM58.158 44.9943C57.7957 44.9943 57.4689 44.9165 57.1777 44.7607C56.8865 44.6015 56.6579 44.3831 56.4919 44.1054C56.326 43.8243 56.243 43.5111 56.243 43.1657C56.243 42.8203 56.326 42.5087 56.4919 42.2311C56.6579 41.95 56.8865 41.7316 57.1777 41.5758C57.4689 41.4166 57.7957 41.337 58.158 41.337C58.5204 41.337 58.8472 41.4166 59.1384 41.5758C59.4296 41.7316 59.6582 41.9483 59.8241 42.226C59.9901 42.5037 60.073 42.8169 60.073 43.1657C60.073 43.5145 59.9901 43.8277 59.8241 44.1054C59.6582 44.3831 59.4296 44.6015 59.1384 44.7607C58.8472 44.9165 58.5204 44.9943 58.158 44.9943ZM58.158 44.4153C58.3951 44.4153 58.6084 44.3628 58.7981 44.2578C58.9877 44.1494 59.1367 44.0004 59.2451 43.8108C59.3534 43.6178 59.4076 43.4027 59.4076 43.1657C59.4076 42.9286 59.3534 42.7153 59.2451 42.5257C59.1367 42.3326 58.9877 42.1836 58.7981 42.0787C58.6084 41.9703 58.3951 41.9161 58.158 41.9161C57.921 41.9161 57.7077 41.9703 57.518 42.0787C57.3284 42.1836 57.1794 42.3326 57.071 42.5257C56.9626 42.7153 56.9085 42.9286 56.9085 43.1657C56.9085 43.4027 56.9626 43.6178 57.071 43.8108C57.1794 44.0004 57.3284 44.1494 57.518 44.2578C57.7077 44.3628 57.921 44.4153 58.158 44.4153ZM65.8553 41.3878L64.6768 44.9435H63.9759L63.0971 42.3123L62.2031 44.9435H61.497L60.3186 41.3878H61.0043L61.8882 44.0902L62.8076 41.3878H63.4171L64.3162 44.1054L65.2254 41.3878H65.8553ZM68.0146 44.9943C67.6523 44.9943 67.3255 44.9165 67.0342 44.7607C66.743 44.6015 66.5144 44.3831 66.3485 44.1054C66.1826 43.8243 66.0996 43.5111 66.0996 43.1657C66.0996 42.8203 66.1826 42.5087 66.3485 42.2311C66.5144 41.95 66.743 41.7316 67.0342 41.5758C67.3255 41.4166 67.6523 41.337 68.0146 41.337C68.3769 41.337 68.7037 41.4166 68.995 41.5758C69.2862 41.7316 69.5148 41.9483 69.6807 42.226C69.8466 42.5037 69.9296 42.8169 69.9296 43.1657C69.9296 43.5145 69.8466 43.8277 69.6807 44.1054C69.5148 44.3831 69.2862 44.6015 68.995 44.7607C68.7037 44.9165 68.3769 44.9943 68.0146 44.9943ZM68.0146 44.4153C68.2516 44.4153 68.465 44.3628 68.6546 44.2578C68.8443 44.1494 68.9933 44.0004 69.1016 43.8108C69.21 43.6178 69.2642 43.4027 69.2642 43.1657C69.2642 42.9286 69.21 42.7153 69.1016 42.5257C68.9933 42.3326 68.8443 42.1836 68.6546 42.0787C68.465 41.9703 68.2516 41.9161 68.0146 41.9161C67.7775 41.9161 67.5642 41.9703 67.3746 42.0787C67.1849 42.1836 67.0359 42.3326 66.9276 42.5257C66.8192 42.7153 66.765 42.9286 66.765 43.1657C66.765 43.4027 66.8192 43.6178 66.9276 43.8108C67.0359 44.0004 67.1849 44.1494 67.3746 44.2578C67.5642 44.3628 67.7775 44.4153 68.0146 44.4153ZM72.956 44.9435L72.2296 43.9022C72.1991 43.9056 72.1534 43.9073 72.0925 43.9073H71.2899V44.9435H70.6295V41.3878H72.0925C72.4006 41.3878 72.6681 41.4386 72.895 41.5402C73.1253 41.6418 73.3014 41.7874 73.4233 41.9771C73.5452 42.1667 73.6062 42.3919 73.6062 42.6527C73.6062 42.9202 73.5401 43.1505 73.4081 43.3435C73.2794 43.5365 73.0931 43.6804 72.8493 43.7752L73.6671 44.9435H72.956ZM72.9407 42.6527C72.9407 42.4258 72.8662 42.2514 72.7172 42.1295C72.5682 42.0075 72.3498 41.9466 72.062 41.9466H71.2899V43.3638H72.062C72.3498 43.3638 72.5682 43.3028 72.7172 43.1809C72.8662 43.0556 72.9407 42.8795 72.9407 42.6527ZM75.5691 43.4552L75.0053 44.0343V44.9435H74.345V41.3878H75.0053V43.2114L76.7628 41.3878H77.5045L76.0111 42.9777L77.5959 44.9435H76.8238L75.5691 43.4552ZM79.0734 44.9943C78.7991 44.9943 78.5333 44.9554 78.2759 44.8775C78.0219 44.7996 77.8204 44.6963 77.6714 44.5677L77.9 44.0546C78.0456 44.1698 78.2234 44.2646 78.4334 44.3391C78.6467 44.4102 78.86 44.4457 79.0734 44.4457C79.3375 44.4457 79.5339 44.4034 79.6626 44.3188C79.7947 44.2341 79.8607 44.1223 79.8607 43.9835C79.8607 43.8819 79.8235 43.7989 79.749 43.7346C79.6778 43.6669 79.5864 43.6144 79.4747 43.5771C79.3629 43.5399 79.2105 43.4976 79.0175 43.4501C78.7466 43.3858 78.5265 43.3215 78.3572 43.2571C78.1912 43.1928 78.0473 43.0929 77.9254 42.9574C77.8069 42.8186 77.7476 42.6323 77.7476 42.3987C77.7476 42.2023 77.8001 42.0245 77.9051 41.8653C78.0134 41.7028 78.1743 41.5741 78.3876 41.4793C78.6044 41.3845 78.8685 41.337 79.18 41.337C79.3968 41.337 79.6101 41.3641 79.8201 41.4183C80.03 41.4725 80.2112 41.5504 80.3636 41.652L80.1553 42.165C79.9996 42.0736 79.837 42.0042 79.6677 41.9568C79.4984 41.9093 79.3341 41.8856 79.175 41.8856C78.9142 41.8856 78.7195 41.9297 78.5908 42.0177C78.4655 42.1058 78.4029 42.2226 78.4029 42.3682C78.4029 42.4698 78.4384 42.5528 78.5095 42.6171C78.584 42.6814 78.6772 42.7322 78.7889 42.7695C78.9007 42.8067 79.0531 42.8491 79.2461 42.8965C79.5102 42.9574 79.727 43.0218 79.8963 43.0895C80.0656 43.1538 80.2095 43.2537 80.328 43.3892C80.4499 43.5246 80.5109 43.7075 80.5109 43.9378C80.5109 44.1342 80.4567 44.312 80.3484 44.4711C80.2434 44.6303 80.0825 44.7573 79.8658 44.8521C79.6491 44.9469 79.3849 44.9943 79.0734 44.9943Z" fill="black"/>
<path d="M12.4865 16.291C12.4865 14.627 13.8074 13.2795 15.4386 13.2795V0.541687C6.91193 0.541687 0 7.59274 0 16.291C0 24.9893 6.91193 32.0403 15.4386 32.0403V19.3025C13.8101 19.3025 12.4865 17.955 12.4865 16.291Z" fill="black"/>
<path d="M62.8644 15.7493C62.8644 14.0853 64.1853 12.7378 65.8165 12.7378V0C57.2899 0 50.3779 7.05105 50.3779 15.7493C50.3779 24.4475 57.2899 31.4986 65.8165 31.4986V18.7608C64.1881 18.7608 62.8644 17.4105 62.8644 15.7493Z" fill="black"/>
<path d="M83.1514 19.2623C81.5203 19.2623 80.1994 17.9149 80.1994 16.2509H67.7129C67.7129 24.9491 74.6248 32.0002 83.1514 32.0002C91.6781 32.0002 98.59 24.9491 98.59 16.2509H86.1035C86.1035 17.9149 84.7826 19.2623 83.1514 19.2623Z" fill="black"/>
<path d="M33.3145 13.1437C34.9457 13.1437 36.2666 14.5341 36.2666 16.2511H48.7531C48.7531 7.27571 41.8412 8.60691e-07 33.3145 8.60691e-07C24.7879 -0.00288977 17.876 7.27571 17.876 16.2511H30.3625C30.3625 14.5341 31.6861 13.1437 33.3145 13.1437Z" fill="black"/>
</svg>
