<svg width="68" height="69" viewBox="0 0 68 69" fill="none" xmlns="http://www.w3.org/2000/svg">
<path d="M51.3623 13.0646C49.812 12.04 49.3699 9.97959 50.3744 8.45985L38.5068 0.616141C33.2562 8.56025 35.5693 19.3419 43.6733 24.6981C51.7773 30.0543 62.6029 27.9565 67.8534 20.0124L55.9858 12.1687C54.9831 13.6858 52.91 14.0876 51.3623 13.0646Z" fill="#F3C042"/>
<g clip-path="url(#clip0_102_7)">
<path d="M52.9872 42.7748V56.271C52.6853 56.6174 52.3323 56.8298 51.8539 56.6404C51.3755 56.451 51.3466 56.0423 51.3314 55.6256C51.3314 55.4565 51.3314 55.2874 51.3314 55.1182C51.3314 53.2416 51.3218 51.3637 51.3314 49.487C51.3314 49.0297 51.1632 48.8511 50.6944 48.8579C49.4191 48.8755 48.1438 48.8579 46.8685 48.8647C46.2357 48.8647 46.2013 48.912 46.193 49.5317C46.1737 50.8996 46.2385 52.2675 46.0992 53.6367C45.8014 56.5565 44.0891 58.1179 41.0904 58.1327C39.5394 58.1422 37.9883 58.1327 36.4373 58.1327C35.6542 58.1327 35.6528 58.1327 35.6528 58.8809V66.5417C35.6528 67.302 35.6528 67.3034 36.4277 67.3034H45.2679C45.7077 67.3034 46.1172 67.3913 46.2619 67.8622C46.4067 68.333 46.215 68.7213 45.7477 68.9446H23.9311C23.4693 68.7484 23.2776 68.4034 23.3796 67.9244C23.4817 67.4455 23.8732 67.3156 24.3185 67.302C24.5074 67.2953 24.6977 67.302 24.8866 67.302C27.7129 67.302 30.5392 67.2926 33.3642 67.3102C33.8564 67.3102 34.0315 67.16 34.026 66.6688C34.0025 64.9952 34.0067 63.3215 34.026 61.6465C34.026 61.2122 33.8881 61.0363 33.429 61.0498C32.6542 61.0728 31.8779 61.0593 31.1031 61.0498C30.7571 61.0498 30.4634 60.9226 30.3021 60.5898C30.2309 60.4532 30.2007 60.2996 30.2149 60.1468C30.229 59.9941 30.287 59.8483 30.3821 59.7266C30.582 59.456 30.8867 59.3924 31.2093 59.391C31.9676 59.391 32.7258 59.391 33.4841 59.3843C33.6703 59.3843 33.8674 59.4086 33.9791 59.1975C34.2548 58.6563 33.9543 58.1341 33.3545 58.1341H24.4109C23.461 58.1341 23.1301 57.804 23.199 56.8704C23.3686 54.5351 24.4964 52.8114 26.6458 51.7709C28.001 51.1201 29.4556 50.863 30.9528 50.859C35.071 50.8468 39.1892 50.859 43.3087 50.8509C44.5868 50.8509 44.5124 51.0078 44.4917 49.6819C44.4793 48.8701 44.4779 48.8619 43.6479 48.8619H18.0592C17.2389 48.8619 17.232 48.862 17.232 49.694C17.232 55.714 17.232 61.734 17.232 67.7539C17.232 68.2951 17.1231 68.7254 16.5771 68.9541H16.2669C15.7154 68.7958 15.5197 68.4129 15.5238 67.8784C15.5307 66.9827 15.5114 66.087 15.5238 65.1914C15.5321 64.7719 15.3625 64.6299 14.9434 64.6299C10.7246 64.6389 6.50573 64.6389 2.28691 64.6299C1.83746 64.6299 1.67201 64.7895 1.68166 65.2238C1.69959 66.1033 1.68166 66.9827 1.68166 67.8608C1.68166 68.3817 1.50932 68.7876 0.956465 68.9541C0.646257 68.9541 0.214724 69.0718 0.06031 68.9202C-0.0941044 68.7687 0.0258425 68.3452 0.0258425 68.0408V42.7748C0.234026 42.3581 0.585594 42.216 1.04194 42.2268C1.71337 42.2417 2.38618 42.2349 3.0576 42.2268C3.19547 42.2268 3.39952 42.3066 3.47121 42.1335C3.53463 41.9982 3.36919 41.898 3.29198 41.7939C2.87152 41.2143 2.55235 40.57 2.34758 39.8875C1.97257 38.6928 1.93397 37.4521 1.88434 36.2262C1.83608 35.1438 2.13388 34.8597 3.22719 34.8543C4.36324 34.8489 5.5002 34.8489 6.63809 34.8543C7.25437 34.8543 7.11512 34.4159 7.14131 34.0628C7.16751 33.688 6.98138 33.6312 6.63533 33.6393C4.59485 33.6894 2.6109 32.2985 2.11044 30.4963C1.7051 29.0391 2.10217 28.3951 3.59944 28.0879C3.7511 28.0595 3.90444 28.0405 4.05854 28.0311C4.9937 27.9407 5.93262 28.1623 6.72357 28.6602C7.08065 28.8862 7.13718 28.7725 7.14821 28.4167C7.16386 28.2006 7.13043 27.9837 7.05032 27.7818C6.97021 27.5799 6.84542 27.3979 6.68496 27.2491C4.93401 25.4672 5.08291 22.5812 6.97862 20.9414C7.61283 20.3934 8.14501 20.3609 8.84539 20.8277C10.9934 22.2578 11.1974 25.5781 9.23142 27.4033C9.09561 27.5165 8.98897 27.6595 8.92021 27.8208C8.85144 27.9821 8.8225 28.1571 8.83574 28.3315C8.8578 28.9051 8.83574 28.9038 9.34861 28.6224C10.4833 27.9919 11.6745 27.7984 12.9263 28.2165C13.8721 28.5358 14.1341 29.0012 13.9673 29.9673C13.7798 31.0357 13.1986 31.9992 12.3342 32.6743C11.4699 33.3494 10.3827 33.689 9.27968 33.6285C9.12527 33.6217 8.97085 33.5771 8.87296 33.7543C8.7977 33.868 8.75687 34.0003 8.75524 34.1358C8.75361 34.2714 8.79124 34.4046 8.86375 34.52C8.93626 34.6354 9.04066 34.7282 9.16482 34.7876C9.28898 34.847 9.42778 34.8706 9.56507 34.8557C10.6336 34.8557 11.7021 34.8448 12.7705 34.8665C13.5013 34.8814 13.8156 35.1993 13.8225 35.9002C13.8492 37.1519 13.7101 38.4017 13.4089 39.6182C13.1575 40.5687 12.6962 41.4532 12.0578 42.2092C12.2977 42.2201 12.4479 42.2336 12.5996 42.2349H28.6752C28.7442 42.2349 28.8131 42.2349 28.882 42.2349C29.2281 42.2593 29.3908 42.1091 29.3825 41.76C29.3729 41.2702 29.3825 40.7805 29.3825 40.2893C29.3825 39.5898 29.3687 39.5776 28.6587 39.5776C25.5056 39.5776 22.3525 39.5776 19.1994 39.5776C17.7807 39.5776 16.9618 38.7658 16.9604 37.3641C16.9604 34.6085 16.9604 31.8524 16.9604 29.0959C16.9604 27.9959 16.9604 26.8973 16.9604 25.7986C16.9604 25.2277 17.3465 24.8678 17.8538 24.9205C18.3239 24.9706 18.5831 25.2886 18.5845 25.8568C18.5845 28.2584 18.5845 30.6586 18.5845 33.0602C18.5845 33.6988 18.5997 33.7137 19.2573 33.7137C25.8227 33.7137 32.3876 33.7173 38.9521 33.7245C39.4718 33.7245 39.6414 33.527 39.7062 33.067C39.878 31.8598 40.2209 30.6821 40.7251 29.5681C41.544 27.747 42.7145 26.2059 44.4806 25.1695C45.545 24.5458 46.1682 24.8989 46.1709 26.1085C46.1709 28.1371 46.1709 30.1666 46.1709 32.197C46.1709 33.7273 46.1709 33.7273 47.7275 33.7151C48.3713 33.7151 48.3906 33.6948 48.3906 33.0494C48.3906 28.5177 48.3906 23.9861 48.3906 19.4544C48.3906 18.6981 48.2624 18.5723 47.489 18.5709H19.5372C18.7431 18.5709 18.5983 18.7062 18.5956 19.4801C18.5956 20.2067 18.5956 20.9346 18.5956 21.6612C18.5859 22.22 18.3033 22.5136 17.8014 22.5217C17.2775 22.5298 16.9811 22.2267 16.9742 21.6436C16.9632 20.8818 17.0032 20.1201 16.9632 19.3611C16.8997 18.2137 17.3892 17.4384 18.4508 16.996H48.5409C49.6825 17.4168 50.1057 18.2678 50.1044 19.4165C50.0961 25.3129 50.0938 31.2089 50.0975 37.1043C50.0975 37.3574 50.0754 37.61 50.0313 37.8593C49.9595 38.3318 49.7178 38.7634 49.3498 39.0761C48.9819 39.3888 48.512 39.5619 48.0253 39.5641C47.5777 39.5749 47.13 39.5749 46.6824 39.5641C46.3364 39.556 46.1751 39.6994 46.182 40.0444C46.193 40.568 46.2068 41.093 46.182 41.6153C46.1558 42.0793 46.3378 42.2363 46.8106 42.2309C48.5326 42.2106 50.2574 42.2309 51.9753 42.2187C52.4288 42.2228 52.7777 42.3608 52.9872 42.7748ZM43.2067 47.126C43.1723 46.9623 43.0385 46.8757 42.931 46.7702C42.2802 46.1099 41.6764 45.3996 41.2931 44.5662C41.0063 43.9451 40.6037 43.822 39.9626 43.822C27.5378 43.8382 15.1125 43.8423 2.68673 43.8342C2.53232 43.8342 2.37652 43.8423 2.22211 43.8342C1.84573 43.8125 1.69269 43.9857 1.69821 44.3483C1.70786 45.0248 1.69821 45.7013 1.69821 46.3778C1.69821 47.2032 1.69821 47.2045 2.52543 47.2045C15.8988 47.2045 29.2722 47.2045 42.6456 47.2045C42.8276 47.2005 43.0234 47.26 43.2067 47.126ZM8.60136 63.0306C10.7025 63.0306 12.8036 63.0211 14.9048 63.0387C15.3639 63.0387 15.5555 62.9102 15.5486 62.4353C15.5293 60.7621 15.5293 59.0884 15.5486 57.4143C15.5486 56.9286 15.3708 56.7621 14.8841 56.7635C10.7149 56.7743 6.54663 56.7743 2.37928 56.7635C1.89812 56.7635 1.69821 56.9191 1.70373 57.4102C1.72119 59.0825 1.72119 60.7558 1.70373 62.4299C1.70373 62.9007 1.88709 63.0401 2.34896 63.0374C4.42804 63.0211 6.51125 63.0306 8.59584 63.0306H8.60136ZM8.62617 55.1169H14.8303C15.5197 55.1169 15.5431 55.0966 15.5445 54.4472C15.5445 52.8073 15.5445 51.1679 15.5445 49.529C15.5445 48.9147 15.4949 48.866 14.8551 48.8647C10.7043 48.8647 6.55399 48.8647 2.4041 48.8647C1.76025 48.8647 1.71475 48.9201 1.70786 49.575C1.70786 51.1986 1.70786 52.8222 1.70786 54.4458C1.70786 55.0885 1.74646 55.1223 2.4234 55.1223L8.62617 55.1169ZM33.167 56.5362C34.7001 56.5362 36.2333 56.5484 37.7664 56.5362C39.0899 56.52 40.4149 56.6025 41.7398 56.4564C43.1502 56.3008 43.9305 55.6689 44.2683 54.3159C44.3632 53.9392 44.4296 53.5562 44.4669 53.1699C44.5275 52.5299 44.4558 52.465 43.8106 52.4636C39.8124 52.4636 35.8141 52.4461 31.8242 52.4731C30.3793 52.4839 28.9289 52.5624 27.5736 53.1591C26.3094 53.7152 25.427 54.6055 25.0382 55.9273C24.8783 56.4685 24.9376 56.5389 25.5208 56.5389L33.167 56.5362ZM29.002 35.3576H24.0387C22.4366 35.3576 20.8332 35.3576 19.2311 35.3576C18.8175 35.3576 18.5611 35.4496 18.5942 35.9232C18.619 36.2763 18.5942 36.6335 18.5942 36.988C18.5942 37.8593 18.71 37.9703 19.6158 37.9703H38.7425C38.8459 37.9703 38.9507 37.9635 39.0527 37.9703C39.3422 37.9919 39.4539 37.8674 39.4401 37.5806C39.4181 37.1084 39.4194 36.6335 39.4181 36.1613C39.4181 35.382 39.4043 35.3617 38.6129 35.3617L29.002 35.3576ZM44.4434 45.8691V27.3194C44.2146 27.3641 44.1208 27.5183 44.005 27.636C43.0661 28.5831 42.4319 29.7237 41.9824 30.9631C41.1456 33.2632 41.0173 35.658 41.1704 38.0677C41.2821 39.7792 41.6336 41.4502 42.3712 43.021C42.8476 44.1025 43.5514 45.073 44.4365 45.8691H44.4434ZM7.85824 36.5171C6.61741 36.5171 5.37658 36.5253 4.13575 36.5171C3.73454 36.5171 3.56221 36.6457 3.62425 37.0583C3.72214 37.7091 3.75247 38.3681 3.89999 39.0134C4.34669 40.9645 5.26352 41.8818 7.27091 42.0875C9.55955 42.3229 11.032 41.5463 11.6828 39.5479C11.9406 38.755 12.0316 37.931 12.1115 37.1125C12.1543 36.6687 11.9737 36.5131 11.5228 36.5212C10.2972 36.5307 9.07425 36.5171 7.85134 36.5171H7.85824ZM48.8056 43.8342C48.1163 43.8342 47.4269 43.8464 46.7376 43.8342C46.3474 43.8247 46.1709 43.9627 46.1861 44.3619C46.2036 45.1385 46.2036 45.9147 46.1861 46.6904C46.1778 47.0963 46.3626 47.2153 46.7486 47.2126C48.0905 47.1991 49.4316 47.1991 50.7716 47.2126C51.1618 47.2126 51.3424 47.0773 51.3355 46.6863C51.3218 45.9097 51.3218 45.1335 51.3355 44.3578C51.3424 43.9519 51.1494 43.8274 50.7661 43.8355C50.1071 43.845 49.4536 43.8342 48.8001 43.8342H48.8056ZM33.4441 42.2282C34.0963 42.2282 34.7498 42.2187 35.4019 42.2282C35.7797 42.2376 35.9313 42.0753 35.9244 41.7154C35.9148 41.1593 35.9162 40.6019 35.9244 40.0458C35.9244 39.7021 35.7631 39.5641 35.4198 39.5668C34.133 39.574 32.8463 39.574 31.5595 39.5668C31.2313 39.5668 31.0935 39.7116 31.0976 40.0282C31.1059 40.6019 31.1086 41.1755 31.0976 41.7479C31.0907 42.0942 31.2451 42.2336 31.5939 42.2268C32.2033 42.2201 32.8237 42.2282 33.4441 42.2282ZM37.6175 40.8752C37.6175 41.1458 37.634 41.4164 37.6175 41.687C37.5844 42.1105 37.7774 42.2579 38.1938 42.2404C38.7246 42.2174 39.2581 42.2255 39.7889 42.2404C40.1212 42.2485 40.2163 42.1226 40.135 41.8114C39.9776 41.2954 39.8551 40.7698 39.7682 40.2379C39.7048 39.7292 39.4925 39.5614 38.9714 39.5709C37.4024 39.6061 37.6368 39.3869 37.6161 40.8738L37.6175 40.8752ZM46.1861 36.6646C46.1861 36.9352 46.1971 37.2058 46.1861 37.4764C46.1682 37.8485 46.3446 37.9919 46.7128 37.9757C47.0809 37.9594 47.4338 37.9757 47.7937 37.9689C48.1866 37.9622 48.3989 37.7673 48.403 37.3749C48.403 37.0042 48.403 36.6349 48.403 36.2641C48.403 35.3657 48.403 35.3617 47.5028 35.3644C46.0055 35.3617 46.1985 35.2413 46.1847 36.6633L46.1861 36.6646ZM7.19646 24.2887C7.16041 24.8986 7.36255 25.499 7.76172 25.9678C7.95474 26.2045 8.12708 26.2208 8.34767 25.9854C9.11009 25.1627 9.11975 23.3754 8.36698 22.5582C8.1519 22.3241 7.97957 22.3268 7.7769 22.5582C7.56837 22.7944 7.40959 23.0689 7.30973 23.3657C7.20987 23.6624 7.1709 23.9757 7.19508 24.2873L7.19646 24.2887ZM9.83253 31.9819C10.3316 31.9381 10.8099 31.7656 11.2191 31.4819C11.6283 31.1982 11.9538 30.8133 12.1625 30.3664C12.4176 29.8522 12.2866 29.6642 11.7007 29.6276C10.7053 29.5641 9.52233 30.3041 9.09631 31.2418C8.82609 31.8344 8.93225 31.9859 9.83116 31.9805L9.83253 31.9819ZM6.44369 31.9819C7.02412 31.9819 7.15097 31.8966 7.06824 31.534C6.83111 30.4949 5.34762 29.491 4.26396 29.6398C3.76212 29.7075 3.69043 29.8374 3.8862 30.3163C4.27775 31.2607 5.36831 31.9738 6.44232 31.9819H6.44369Z" fill="#252525"/>
<path d="M52.0574 68.9513C51.5335 68.7916 51.335 68.4101 51.335 67.9081C51.335 65.405 51.335 62.9024 51.335 60.4003C51.335 59.9484 51.4728 59.5438 51.9747 59.4126C52.4462 59.2895 52.7688 59.5195 52.9866 59.92C52.9866 62.7613 52.9756 65.6026 52.999 68.4439C52.999 68.8742 52.9081 69.0365 52.4682 68.9553C52.3317 68.9419 52.1942 68.9405 52.0574 68.9513Z" fill="#252525"/>
<path d="M8.62762 60.6776C7.69976 60.6776 6.77189 60.6776 5.84265 60.6776C5.24567 60.6776 4.91065 60.3922 4.8941 59.9078C4.87756 59.4234 5.2374 59.0825 5.84265 59.0797C7.71584 59.0734 9.5895 59.0734 11.4636 59.0797C12.0537 59.0797 12.3777 59.3815 12.3777 59.8794C12.3777 60.3773 12.0565 60.6695 11.4636 60.6763C10.5206 60.6844 9.57617 60.6776 8.62762 60.6776Z" fill="#252525"/>
<path d="M8.68753 51.162C9.59885 51.162 10.5115 51.162 11.4229 51.162C12.0309 51.162 12.3549 51.4326 12.3797 51.9237C12.4045 52.4365 12.0943 52.7747 11.4656 52.7829C9.59058 52.8072 7.71555 52.8072 5.84052 52.7829C5.21873 52.7761 4.87543 52.427 4.89749 51.9372C4.91954 51.4474 5.26973 51.1606 5.90117 51.1566C6.83593 51.1579 7.75829 51.162 8.68753 51.162Z" fill="#252525"/>
</g>
<defs>
<clipPath id="clip0_102_7">
<rect width="53" height="52" fill="white" transform="translate(0 17)"/>
</clipPath>
</defs>
</svg>
