<svg width="61" height="72" viewBox="0 0 61 72" fill="none" xmlns="http://www.w3.org/2000/svg">
<path d="M44.3623 13.0646C42.812 12.04 42.3699 9.97959 43.3744 8.45985L31.5068 0.616141C26.2562 8.56025 28.5693 19.3419 36.6733 24.6981C44.7773 30.0543 55.6029 27.9565 60.8534 20.0124L48.9858 12.1687C47.9831 13.6858 45.91 14.0876 44.3623 13.0646Z" fill="#E558BB"/>
<g clip-path="url(#clip0_102_9)">
<path d="M42.7748 65.6083C43.1475 65.2085 43.1756 64.7444 42.8503 64.3967C42.5249 64.049 42.0694 64.072 41.6672 64.4289C41.574 64.5116 41.4853 64.605 41.3892 64.703L41.2857 64.8087C39.4571 66.6484 37.288 68.0859 34.909 69.0346L34.8365 69.0683C34.7296 69.1305 34.6117 69.17 34.4898 69.1845C34.3679 69.1989 34.2445 69.1881 34.1267 69.1526L33.6209 68.9902L33.9433 68.5537C35.2506 66.7922 36.2636 64.7628 37.04 62.3504C37.1879 61.874 37.5102 61.6458 38.013 61.6581C38.8545 61.6765 39.6087 61.6749 40.32 61.6581C40.4208 61.6623 40.5214 61.6451 40.6156 61.6075C40.7097 61.5699 40.7954 61.5128 40.8675 61.4396C40.9395 61.3664 40.9963 61.2788 41.0344 61.182C41.0725 61.0852 41.0911 60.9814 41.089 60.8769C41.089 60.3914 40.7932 60.0804 40.3052 60.0636C39.8018 60.0368 39.2973 60.0368 38.7939 60.0636C38.5439 60.0804 38.2319 60.0712 38.0323 59.8308C37.8326 59.5903 37.8696 59.2641 37.9332 58.9761C38.4119 56.784 38.6848 54.5491 38.748 52.3026C38.7717 51.4403 39.2952 51.333 39.7536 51.3376C41.2398 51.3499 42.7527 51.3484 44.2152 51.3453H45.9499C46.3403 51.3453 46.71 51.3453 46.9318 51.6072C47.1536 51.8691 47.1048 52.2597 47.0516 52.6702C46.926 53.7295 46.7324 54.779 46.4719 55.8117C46.4232 55.95 46.4126 56.0996 46.4414 56.2438C46.4701 56.3879 46.537 56.521 46.6346 56.628C46.7194 56.7424 46.8343 56.8289 46.9655 56.8773C47.0966 56.9257 47.2385 56.9338 47.374 56.9007C47.7245 56.8226 47.9271 56.5836 48.0513 56.1027C48.804 53.2047 48.98 50.4125 48.5733 47.8025C47.201 38.9847 42.3519 33.0111 34.1592 30.0489C33.5396 29.8252 33.2897 29.4622 33.2941 28.7929C33.2941 28.5708 33.2941 28.3502 33.3074 28.1281C33.3433 27.4341 33.3215 26.7382 33.2424 26.0481C33.1774 25.4965 32.919 24.9889 32.5163 24.6218C32.1136 24.2546 31.5946 24.0536 31.0581 24.0569H30.7727C30.4563 24.042 30.1393 24.0456 29.8233 24.0677C29.6891 24.091 29.5517 24.0848 29.4199 24.0494C29.2882 24.0141 29.1651 23.9503 29.0588 23.8624C28.8222 23.6357 28.7941 23.3003 28.7955 23.0322C28.8059 21.6936 28.8059 20.3319 28.8059 19.0147C28.8059 17.6974 28.8059 16.3817 28.8148 15.0645C28.8148 14.5483 28.6876 14.2358 28.3711 14.0122H27.6953C27.3507 14.2481 27.2132 14.5682 27.2517 15.0323C27.259 15.1777 27.259 15.3234 27.2517 15.4688C27.2517 15.5255 27.2517 15.5837 27.2517 15.6404C27.2517 16.2745 27.2517 16.9091 27.2517 17.5443C27.2517 19.3608 27.2517 21.2417 27.2605 23.0889C27.2605 23.3156 27.2383 23.6419 27.0136 23.8548C26.9138 23.9373 26.799 23.9982 26.676 24.0337C26.5531 24.0692 26.4244 24.0787 26.2978 24.0615C26.1248 24.0493 25.9503 24.0447 25.7743 24.0447C25.5983 24.0447 25.4371 24.0447 25.2612 24.0447H25.0009C24.4643 24.041 23.9452 24.2419 23.5424 24.6091C23.1396 24.9763 22.8813 25.4841 22.8167 26.0359C22.7383 26.7199 22.7165 27.4096 22.7516 28.0975C22.7516 28.3257 22.7634 28.557 22.7649 28.7822C22.7649 29.4745 22.515 29.839 21.888 30.0397C17.1697 31.5572 13.1309 34.7722 10.501 39.1041C7.87278 43.4379 6.824 48.6009 7.54341 53.6643C8.23603 58.4751 10.4798 62.9016 13.9097 66.224C17.3495 69.5458 21.7784 71.5563 26.4679 71.9249C32.0578 72.3538 37.0932 70.6628 41.4336 66.8995C41.9024 66.4939 42.3501 66.0629 42.7748 65.6083ZM37.1361 52.3041C37.0588 54.6587 36.7527 56.9992 36.2222 59.2901C36.1068 59.8001 35.7978 60.0559 35.2876 60.0559C33.3533 60.0437 31.4559 60.0437 29.6473 60.0559H29.6414C29.5284 60.0644 29.415 60.049 29.3079 60.0105C29.2009 59.9721 29.1025 59.9114 29.0188 59.8323C28.9417 59.7398 28.8831 59.6323 28.8465 59.516C28.8099 59.3998 28.7961 59.2772 28.8059 59.1553C28.8148 58.316 28.8059 57.4613 28.8059 56.6357C28.8059 56.311 28.8059 55.9863 28.8059 55.6631C28.8059 55.3399 28.8059 55.0152 28.8059 54.6905C28.8059 53.9032 28.8059 53.0883 28.7955 52.2888C28.7838 52.1596 28.7973 52.0294 28.8351 51.9057C28.873 51.782 28.9345 51.6675 29.0159 51.5689C29.1095 51.4831 29.219 51.418 29.3378 51.3774C29.4565 51.3369 29.582 51.3218 29.7065 51.333C31.8375 51.3484 34.0321 51.3484 36.2311 51.333C36.3548 51.3237 36.4791 51.3401 36.5966 51.3811C36.7142 51.4221 36.8227 51.487 36.9158 51.572C36.998 51.6725 37.0599 51.7891 37.0978 51.9148C37.1357 52.0406 37.1487 52.173 37.1361 52.3041ZM28.8103 46.3398C28.8103 46.013 28.8103 45.6863 28.8103 45.3595C28.8103 45.0394 28.8103 44.7177 28.8103 44.3961C28.8103 43.6057 28.8103 42.7878 28.8029 41.9852C28.7895 41.8526 28.8021 41.7186 28.8399 41.5912C28.8778 41.4638 28.9402 41.3457 29.0233 41.2439C29.1146 41.1598 29.2215 41.096 29.3374 41.0562C29.4534 41.0164 29.5759 41.0016 29.6976 41.0126C31.6541 41.0325 33.618 41.0249 35.2802 41.0126C35.7933 41.0126 36.1068 41.2561 36.2222 41.7677C36.7585 44.0778 37.0652 46.4387 37.1376 48.8134C37.1502 48.9367 37.1379 49.0614 37.1015 49.1795C37.0651 49.2977 37.0053 49.4067 36.9261 49.4996C36.8346 49.5851 36.7272 49.6501 36.6104 49.6907C36.4936 49.7313 36.37 49.7465 36.2473 49.7355C33.8428 49.7232 31.7073 49.7232 29.7213 49.7355H29.705C29.5814 49.7459 29.4571 49.7304 29.3395 49.6899C29.2218 49.6493 29.1133 49.5846 29.0203 49.4996C28.9398 49.4024 28.8789 49.2893 28.8413 49.1673C28.8037 49.0452 28.7902 48.9165 28.8015 48.7889C28.8162 47.9756 28.8133 47.1439 28.8103 46.3398ZM44.0866 41.0126C44.3067 40.9969 44.5261 41.0526 44.7143 41.172C44.9025 41.2914 45.0501 41.4686 45.1365 41.6789C46.164 43.8278 46.8149 46.1485 47.059 48.5331C47.0989 48.8977 47.1374 49.2408 46.9259 49.4843C46.7144 49.7278 46.3832 49.7294 45.9972 49.7309H42.0044C41.2502 49.7309 40.4708 49.7309 39.7063 49.7309H39.6486C39.3809 49.7309 38.785 49.6788 38.7613 48.8242C38.6936 46.5403 38.4163 44.2683 37.9332 42.0388C37.8962 41.8703 37.8178 41.5181 38.0219 41.2577C38.2023 41.0264 38.4907 41.0003 38.7243 41.0034C40.2697 41.0249 41.9216 41.0264 44.0806 41.0034L44.0866 41.0126ZM34.4062 31.9129C38.0293 33.2148 40.981 35.4664 43.427 38.7947L43.8706 39.4074H41.7485C40.4176 39.4074 39.1399 39.4074 37.8637 39.4074C37.4644 39.4074 37.1908 39.1868 37.0488 38.7518C36.2547 36.3134 35.2521 34.2686 33.9818 32.498L33.2675 31.5009L34.4062 31.9129ZM12.9633 38.3643C12.9779 38.3488 12.9917 38.3324 13.0047 38.3153C14.6414 36.1485 16.697 34.3596 19.0398 33.0632C19.914 32.5633 20.8333 32.153 21.7845 31.8379L22.9024 31.4794L22.1852 32.4383C20.8336 34.2395 19.8221 36.2567 18.9939 38.7932C18.9434 38.9798 18.8329 39.143 18.6807 39.2558C18.5285 39.3686 18.3438 39.4242 18.1569 39.4135C17.1927 39.4135 16.2285 39.4135 15.2643 39.4135H13.4069C13.3942 39.4153 13.3812 39.4153 13.3685 39.4135H13.296C13.1834 39.4262 13.07 39.3994 12.9737 39.3375C12.8775 39.2756 12.8041 39.1821 12.7651 39.072C12.7259 38.9477 12.723 38.8142 12.757 38.6882C12.7909 38.5623 12.8601 38.4496 12.9559 38.3643H12.9633ZM27.2591 54.6889C27.2591 55.0106 27.2591 55.3322 27.2591 55.6539C27.2591 55.9786 27.2591 56.3033 27.2591 56.6296C27.2591 57.4352 27.2591 58.2685 27.2664 59.0803C27.2799 59.2124 27.2673 59.3459 27.2295 59.4728C27.1916 59.5997 27.1292 59.7174 27.0461 59.8185C26.9577 59.9007 26.8543 59.9636 26.7421 60.0036C26.6298 60.0436 26.5109 60.0598 26.3925 60.0513H26.3703C24.4108 60.0314 22.4484 60.0376 20.7877 60.0513C20.2716 60.0605 19.9625 59.8063 19.8472 59.2947C19.3193 57.0037 19.0122 54.6641 18.9303 52.3102C18.9156 52.179 18.9267 52.046 18.9631 51.9194C18.9994 51.7928 19.0602 51.6751 19.1418 51.5735C19.2417 51.4838 19.3579 51.4159 19.4837 51.3738C19.6095 51.3317 19.7422 51.3162 19.8738 51.3284C21.9871 51.3438 24.1624 51.3438 26.3437 51.3284C26.4696 51.3178 26.5964 51.3333 26.7165 51.3741C26.8366 51.4148 26.9477 51.48 27.0431 51.5659C27.1241 51.6629 27.1852 51.7759 27.2228 51.898C27.2604 52.0202 27.2737 52.1489 27.262 52.2766C27.2457 53.0822 27.2487 53.8986 27.2517 54.6889H27.2591ZM27.2679 48.8272C27.2777 48.9512 27.2631 49.0759 27.225 49.1939C27.1868 49.3118 27.126 49.4205 27.0461 49.5134C26.9536 49.595 26.8463 49.6568 26.7306 49.6952C26.6148 49.7336 26.4929 49.7478 26.3718 49.737C25.5939 49.7232 24.7998 49.7263 24.0323 49.737C23.4151 49.737 22.7989 49.737 22.1837 49.737C21.4192 49.737 20.6295 49.737 19.8546 49.7462H19.8161C19.6956 49.7549 19.5747 49.7385 19.4604 49.698C19.3461 49.6575 19.2408 49.5937 19.1507 49.5103C19.0685 49.4123 19.0066 49.2978 18.969 49.174C18.9313 49.0501 18.9187 48.9196 18.9318 48.7905C19.0075 46.436 19.3127 44.0954 19.8428 41.8045C19.9611 41.2791 20.2775 41.0233 20.8099 41.0233H20.8203C22.8625 41.0386 24.6652 41.0371 26.3481 41.0233C26.4733 41.012 26.5995 41.0268 26.7191 41.0668C26.8387 41.1068 26.9494 41.1712 27.0446 41.2561C27.1258 41.3529 27.1875 41.4654 27.2261 41.5872C27.2647 41.709 27.2794 41.8376 27.2694 41.9653C27.2472 44.1311 27.2472 46.3781 27.2605 48.8272H27.2679ZM8.99117 48.769C9.21034 46.2432 9.89507 43.7844 11.0083 41.5257C11.0894 41.362 11.2152 41.2266 11.3701 41.1364C11.525 41.0463 11.7021 41.0054 11.8793 41.0187H11.9666C13.7678 41.0187 15.6311 41.0279 17.4619 41.0187C17.574 41.0096 17.6868 41.0265 17.7919 41.0681C17.897 41.1096 17.9919 41.1749 18.0697 41.2592C18.2589 41.5027 18.188 41.8183 18.1628 41.9377C17.658 44.2402 17.3707 46.5881 17.3051 48.9482C17.2814 49.7416 16.6352 49.7355 16.4178 49.737C15.6133 49.737 14.8103 49.737 14.0059 49.737H13.1008H12.1928C11.4401 49.737 10.6622 49.737 9.89917 49.7462H9.85628C9.73025 49.7571 9.60341 49.7405 9.48395 49.6975C9.36449 49.6545 9.25506 49.5861 9.16271 49.4966C9.08306 49.3964 9.02573 49.2792 8.9948 49.1535C8.96387 49.0277 8.9601 48.8965 8.98378 48.769H8.99117ZM10.9284 59.382C9.90046 57.2328 9.24951 54.9114 9.00596 52.5262C8.96751 52.1663 8.93054 51.8247 9.14053 51.5827C9.35052 51.3407 9.66995 51.3392 10.0766 51.3392H14.0813C14.834 51.3392 15.6119 51.3392 16.3749 51.33C16.9901 51.33 17.2977 51.6195 17.3169 52.249C17.3797 54.5329 17.658 56.805 18.148 59.0328C18.2042 59.2855 18.2368 59.575 18.0578 59.7986C17.8789 60.0222 17.6142 60.0544 17.379 60.0544H17.345C15.739 60.033 14.0369 60.033 11.9887 60.0544C11.7654 60.0734 11.542 60.0189 11.3503 59.8988C11.1586 59.7786 11.0084 59.5988 10.921 59.3851L10.9284 59.382ZM21.7889 69.2399C20.5744 68.8179 19.4077 68.2607 18.3092 67.578C16.2852 66.3363 14.5 64.7183 13.0431 62.8053C13.0261 62.7838 13.0078 62.7633 12.9884 62.744C12.8775 62.6261 12.6202 62.3489 12.7799 61.9782C12.9529 61.583 13.3463 61.6336 13.4942 61.6519L13.5696 61.6596C15.0617 61.6596 16.5524 61.6596 18.0445 61.6596C18.29 61.6596 18.8002 61.6596 19.0013 62.2723C19.8265 64.8103 20.8424 66.8336 22.1985 68.644L22.9468 69.6442L21.7889 69.2399ZM26.9929 69.972C26.8996 70.0346 26.7905 70.0671 26.6794 70.0654C26.5125 70.0559 26.3493 70.0105 26.2002 69.9322C25.2212 69.4727 24.3413 68.7405 23.5073 67.6883C22.4499 66.3557 21.5981 64.749 20.8291 62.6338C20.7744 62.4806 20.6605 62.1742 20.8365 61.9062C21.0125 61.6382 21.3423 61.6489 21.4828 61.6504C23.2322 61.6657 24.8397 61.6657 26.3954 61.6504C26.5139 61.64 26.6332 61.6548 26.7459 61.6941C26.8585 61.7333 26.9622 61.7962 27.0505 61.8786C27.1311 61.9752 27.1919 62.0877 27.2293 62.2094C27.2666 62.331 27.2798 62.4592 27.2679 62.5863C27.2561 63.3781 27.2576 64.1853 27.2605 64.965C27.2605 65.2713 27.2605 65.5883 27.2605 65.9008C27.2605 66.2133 27.2605 66.5487 27.2605 66.8734C27.2605 67.6393 27.2605 68.4342 27.2709 69.2123C27.265 69.3655 27.2753 69.7729 26.9796 69.972H26.9929ZM27.2709 31.8792C27.2502 32.6558 27.2546 33.4492 27.2591 34.2166C27.2591 34.5402 27.2591 34.8645 27.2591 35.1892C27.2591 35.4955 27.2591 35.8018 27.2591 36.1082C27.2591 36.874 27.2591 37.6644 27.2664 38.4394C27.2803 38.5723 27.2677 38.7068 27.2296 38.8345C27.1914 38.9623 27.1285 39.0806 27.0446 39.1822C26.9574 39.2647 26.8548 39.3278 26.7432 39.3676C26.6315 39.4074 26.5131 39.423 26.3954 39.4135H26.3732C25.0157 39.3967 23.633 39.4013 22.2961 39.4135H21.4591C21.2698 39.4135 20.9859 39.4135 20.8203 39.1685C20.7663 39.0709 20.7361 38.9612 20.7322 38.8489C20.7283 38.7365 20.751 38.6249 20.7981 38.5236C21.5375 36.4758 22.5727 34.1369 24.5099 32.2943C25.0009 31.829 25.558 31.4447 26.1618 31.1547C26.3481 31.0644 26.6956 30.8974 26.9884 31.0981C27.2812 31.2987 27.2753 31.7199 27.2635 31.8792H27.2709ZM28.0177 29.0931H27.2176C26.5936 29.0931 25.9488 29.0839 25.3203 29.1053H25.2508C25.1306 29.1138 25.0101 29.0969 24.8964 29.0555C24.7828 29.0142 24.6784 28.9493 24.5898 28.8649C24.5046 28.7597 24.4416 28.6373 24.4049 28.5053C24.3682 28.3734 24.3587 28.235 24.3768 28.099C24.3961 27.7376 24.3916 27.3623 24.3872 26.9993C24.3872 26.8568 24.3872 26.7159 24.3872 26.5735C24.3809 26.4517 24.3984 26.3299 24.4389 26.2154C24.4793 26.1009 24.5417 25.996 24.6223 25.9072C24.7083 25.8235 24.8097 25.7586 24.9205 25.7164C25.0313 25.6743 25.1492 25.6559 25.2671 25.6621H30.8008C30.9214 25.6551 31.0421 25.6736 31.1555 25.7165C31.2689 25.7594 31.3726 25.8259 31.4604 25.9118C31.5443 26.0072 31.6085 26.1192 31.6492 26.2412C31.6899 26.3631 31.7061 26.4923 31.697 26.621V26.7282C31.697 27.2137 31.6837 27.7177 31.697 28.2063C31.7101 28.3259 31.6988 28.4471 31.6636 28.562C31.6284 28.6768 31.5703 28.7826 31.4929 28.8725C31.403 28.9544 31.2982 29.0167 31.1847 29.0559C31.0712 29.0951 30.9512 29.1104 30.8319 29.1008C30.1635 29.09 29.4817 29.1008 28.8222 29.1008L28.0177 29.0931ZM28.8074 38.4363C28.8236 37.6521 28.8207 36.851 28.8177 36.0775C28.8177 35.7605 28.8177 35.4419 28.8177 35.1248V34.3376C28.8177 33.5503 28.8177 32.763 28.8177 31.9757C28.8177 31.602 28.8177 31.2482 29.0957 31.069C29.3738 30.8898 29.6873 31.046 30.0289 31.2129C30.9561 31.6724 31.8035 32.3954 32.602 33.4216C33.6372 34.7373 34.4757 36.3318 35.2476 38.4256C35.3275 38.6446 35.3955 38.9249 35.2476 39.1623C35.0702 39.4242 34.7493 39.4227 34.557 39.4212C33.0398 39.4089 31.4086 39.3997 29.7568 39.4212H29.7242C29.6005 39.4302 29.4763 39.4138 29.3588 39.3728C29.2413 39.3318 29.1327 39.267 29.0396 39.1822C28.9518 39.0814 28.8852 38.9627 28.8439 38.8338C28.8027 38.7049 28.7877 38.5685 28.8 38.4333L28.8074 38.4363ZM31.6023 68.7421C31.0865 69.2393 30.4962 69.6464 29.8544 69.9475C29.7115 70.0216 29.5555 70.0644 29.3959 70.0731C29.2852 70.0751 29.1765 70.0425 29.0839 69.9797C28.797 69.7836 28.8059 69.3946 28.8074 69.2475C28.8236 68.4511 28.8207 67.6393 28.8177 66.852C28.8177 66.5273 28.8177 66.2026 28.8177 65.8778C28.8177 65.5715 28.8177 65.256 28.8177 64.945C28.8177 64.1792 28.8177 63.395 28.8103 62.6215C28.797 62.4896 28.8096 62.3563 28.8475 62.2297C28.8854 62.1031 28.9477 61.9857 29.0307 61.8848C29.1233 61.8018 29.2307 61.7385 29.347 61.6985C29.4632 61.6586 29.5858 61.6427 29.708 61.6519C31.1232 61.6703 32.5636 61.6642 33.9552 61.6611H34.6221C34.7966 61.6611 35.0879 61.6611 35.255 61.9077C35.309 62.0061 35.3392 62.1165 35.3431 62.2296C35.347 62.3427 35.3244 62.4551 35.2772 62.5572C34.5215 64.582 33.5071 66.9041 31.595 68.739L31.6023 68.7421Z" fill="black"/>
<path d="M53.4391 64.1333C53.0147 63.6998 52.574 63.2526 52.1481 62.8053C51.8908 62.5357 51.6601 62.4056 51.4427 62.404C51.2223 62.404 50.9739 62.5434 50.7033 62.8191C49.6459 63.9066 48.5072 65.0845 47.2236 66.4247C46.6705 67.0006 46.6661 67.4034 47.2044 67.9656C48.2647 69.0745 49.4034 70.2539 50.6841 71.5711C51.2386 72.1409 51.6305 72.1424 52.1806 71.5711C53.1108 70.6108 54.0484 69.6259 54.9549 68.6717L56.0019 67.5719V66.8444C55.1826 65.9085 54.2968 65.0063 53.4391 64.1333ZM53.5766 67.7772C53.0383 68.3132 52.5015 68.8677 51.9854 69.4283C51.9185 69.5115 51.8355 69.5793 51.7418 69.6273C51.6481 69.6753 51.5457 69.7025 51.4412 69.7071C51.3297 69.6997 51.2209 69.6687 51.1214 69.616C51.022 69.5633 50.934 69.4901 50.863 69.4007C50.4519 68.9627 50.026 68.5246 49.6134 68.1003L49.3043 67.7817C49.2167 67.7081 49.1445 67.6168 49.0921 67.5133C49.0397 67.4098 49.0083 67.2963 48.9997 67.1798C49.0034 67.0817 49.0262 66.9853 49.0669 66.8966C49.1076 66.8079 49.1652 66.7286 49.2363 66.6636C49.5675 66.3267 49.8958 65.9851 50.2241 65.6451L50.9207 64.9252C50.984 64.863 51.054 64.8086 51.1292 64.7628L51.1602 64.7414L51.2667 64.6633L51.3983 64.6724C51.6203 64.6923 51.8255 64.8024 51.9692 64.9788L51.9928 65.0033L52.54 65.5715C52.8712 65.9177 53.2143 66.2746 53.5574 66.6177C53.6432 66.6919 53.7137 66.7834 53.7645 66.8866C53.8153 66.9898 53.8455 67.1025 53.8532 67.2181C53.8468 67.326 53.8189 67.4313 53.7713 67.5276C53.7237 67.6238 53.6574 67.7087 53.5766 67.7772Z" fill="black"/>
<path d="M44.6344 18.7292C44.21 18.2958 43.7693 17.8485 43.3434 17.4013C43.0861 17.1317 42.8554 17.0015 42.638 17C42.4177 17 42.1692 17.1393 41.8986 17.415C40.8412 18.5025 39.7025 19.6804 38.4189 21.0206C37.8658 21.5965 37.8614 21.9994 38.3997 22.5615C39.46 23.6704 40.5987 24.8498 41.8794 26.1671C42.4339 26.7369 42.8258 26.7384 43.3759 26.1671C44.3061 25.2067 45.2437 24.2218 46.1502 23.2676L47.1972 22.1679V21.4403C46.3779 20.5045 45.4921 19.6023 44.6344 18.7292ZM44.7719 22.3731C44.2337 22.9092 43.6968 23.4637 43.1807 24.0243C43.1138 24.1075 43.0308 24.1752 42.9371 24.2232C42.8434 24.2712 42.741 24.2984 42.6365 24.303C42.525 24.2957 42.4162 24.2647 42.3167 24.212C42.2173 24.1593 42.1293 24.086 42.0583 23.9967C41.6472 23.5586 41.2213 23.1206 40.8087 22.6963L40.4996 22.3777C40.412 22.3041 40.3398 22.2127 40.2874 22.1092C40.235 22.0057 40.2036 21.8923 40.195 21.7757C40.1987 21.6776 40.2215 21.5813 40.2622 21.4925C40.3029 21.4038 40.3605 21.3246 40.4316 21.2596C40.7629 20.9226 41.0912 20.581 41.4195 20.241L42.116 19.5211C42.1793 19.459 42.2493 19.4045 42.3245 19.3588L42.3556 19.3373L42.462 19.2592L42.5936 19.2684C42.8156 19.2882 43.0208 19.3984 43.1645 19.5747L43.1881 19.5992L43.7353 20.1675C44.0665 20.5136 44.4096 20.8705 44.7527 21.2136C44.8385 21.2879 44.909 21.3794 44.9598 21.4825C45.0106 21.5857 45.0408 21.6985 45.0485 21.814C45.0421 21.9219 45.0142 22.0273 44.9666 22.1235C44.919 22.2197 44.8528 22.3047 44.7719 22.3731Z" fill="black"/>
<path d="M20.6344 15.7292C20.21 15.2958 19.7693 14.8485 19.3434 14.4013C19.0861 14.1317 18.8554 14.0015 18.638 14C18.4177 14 18.1692 14.1393 17.8986 14.415C16.8412 15.5025 15.7025 16.6804 14.4189 18.0206C13.8658 18.5965 13.8614 18.9994 14.3997 19.5615C15.46 20.6704 16.5987 21.8498 17.8794 23.1671C18.4339 23.7369 18.8258 23.7384 19.3759 23.1671C20.3061 22.2067 21.2437 21.2218 22.1502 20.2676L23.1972 19.1679V18.4403C22.3779 17.5045 21.4921 16.6023 20.6344 15.7292ZM20.7719 19.3731C20.2337 19.9092 19.6968 20.4637 19.1807 21.0243C19.1138 21.1075 19.0308 21.1752 18.9371 21.2232C18.8434 21.2712 18.741 21.2984 18.6365 21.303C18.525 21.2957 18.4162 21.2647 18.3167 21.212C18.2173 21.1593 18.1293 21.086 18.0583 20.9967C17.6472 20.5586 17.2213 20.1206 16.8087 19.6963L16.4996 19.3777C16.412 19.3041 16.3398 19.2127 16.2874 19.1092C16.235 19.0057 16.2036 18.8923 16.195 18.7757C16.1987 18.6776 16.2215 18.5813 16.2622 18.4925C16.3029 18.4038 16.3605 18.3246 16.4316 18.2596C16.7629 17.9226 17.0912 17.581 17.4195 17.241L18.116 16.5211C18.1793 16.459 18.2493 16.4045 18.3245 16.3588L18.3556 16.3373L18.462 16.2592L18.5936 16.2684C18.8156 16.2882 19.0208 16.3984 19.1645 16.5747L19.1881 16.5992L19.7353 17.1675C20.0665 17.5136 20.4096 17.8705 20.7527 18.2136C20.8385 18.2879 20.909 18.3794 20.9598 18.4825C21.0106 18.5857 21.0408 18.6985 21.0485 18.814C21.0421 18.9219 21.0142 19.0273 20.9666 19.1235C20.919 19.2197 20.8528 19.3047 20.7719 19.3731Z" fill="black"/>
<path d="M8.94818 66.5411C7.77991 65.3081 6.54658 64.0291 5.28218 62.7425C5.11679 62.543 4.8817 62.4196 4.62854 62.3994C4.50705 62.4082 4.38844 62.4419 4.27955 62.4984C4.17067 62.5549 4.07366 62.6332 3.99413 62.7287C2.84657 63.8943 1.64576 65.1365 0.325176 66.5273C-0.105161 66.9868 -0.10812 67.4172 0.314823 67.8675C1.26571 68.8769 2.24912 69.8893 3.20001 70.868L3.97934 71.6706C4.19525 71.8943 4.39785 71.9892 4.61523 71.977H4.6596C4.77682 71.979 4.89299 71.954 4.99967 71.9036C5.10635 71.8533 5.20084 71.7789 5.27627 71.686L6.25673 70.6735C7.14402 69.7622 8.05497 68.8187 8.94227 67.8828C9.38148 67.4187 9.38148 66.9944 8.94818 66.5411ZM7.076 67.1844C7.05063 67.408 6.94506 67.6135 6.78023 67.7603L6.75657 67.7848C6.587 67.9625 6.41595 68.1391 6.24342 68.3147C5.89737 68.6686 5.54098 69.0346 5.20824 69.4038C5.13964 69.4936 5.05342 69.5674 4.95528 69.6202C4.85714 69.673 4.74931 69.7036 4.6389 69.7101C4.52453 69.7009 4.41315 69.6678 4.31148 69.6128C4.20981 69.5578 4.11997 69.482 4.04737 69.39C3.52091 68.8202 3.0255 68.3071 2.53306 67.8215C2.4457 67.746 2.37433 67.6526 2.32344 67.5472C2.27255 67.4418 2.24322 67.3266 2.23729 67.2089C2.24528 67.0932 2.27556 66.9803 2.32636 66.8769C2.37716 66.7735 2.44744 66.6817 2.53306 66.6069C2.94565 66.1995 3.35528 65.7706 3.7516 65.3555L4.09469 64.9971C4.16594 64.9085 4.25376 64.8356 4.35287 64.783C4.45197 64.7303 4.56033 64.699 4.67143 64.6908C4.76698 64.6945 4.86081 64.7183 4.94724 64.7607C5.03366 64.8031 5.11088 64.8632 5.17423 64.9374C5.49809 65.2805 5.82491 65.619 6.15321 65.9575C6.38687 66.1995 6.61904 66.44 6.85122 66.6835C6.91299 66.749 6.96619 66.8227 7.00945 66.9025L7.02867 66.9347L7.10705 67.0511L7.076 67.1844Z" fill="black"/>
<path d="M45.2943 60.0544C45.1953 60.0511 45.0966 60.0685 45.0041 60.1055C44.9116 60.1425 44.8273 60.1984 44.7561 60.2699C44.6849 60.3413 44.6284 60.4269 44.5897 60.5214C44.5511 60.616 44.5312 60.7176 44.5313 60.8203C44.526 60.9285 44.5417 61.0367 44.5775 61.1385C44.6134 61.2403 44.6685 61.3337 44.7398 61.413C44.8114 61.487 44.8966 61.5456 44.9902 61.5853C45.0839 61.625 45.1843 61.6451 45.2855 61.6443C45.3894 61.6483 45.4931 61.6307 45.5903 61.5926C45.6876 61.5544 45.7765 61.4965 45.8518 61.4222C45.9236 61.3467 45.9802 61.2572 46.0183 61.1588C46.0564 61.0605 46.0752 60.9553 46.0737 60.8494C46.0762 60.7432 46.0583 60.6376 46.021 60.5387C45.9837 60.4398 45.9277 60.3496 45.8563 60.2734C45.7813 60.2001 45.6931 60.143 45.5966 60.1054C45.5001 60.0678 45.3973 60.0505 45.2943 60.0544Z" fill="black"/>
</g>
<defs>
<clipPath id="clip0_102_9">
<rect width="56" height="58" fill="white" transform="translate(0 14)"/>
</clipPath>
</defs>
</svg>
