<svg width="59" height="67" viewBox="0 0 59 67" fill="none" xmlns="http://www.w3.org/2000/svg">
<path d="M42.3623 13.0646C40.812 12.04 40.3699 9.97959 41.3744 8.45985L29.5068 0.616141C24.2562 8.56025 26.5693 19.3419 34.6733 24.6981C42.7773 30.0543 53.6029 27.9565 58.8534 20.0124L46.9858 12.1687C45.9831 13.6858 43.91 14.0876 42.3623 13.0646Z" fill="#90F9B8"/>
<g clip-path="url(#clip0_102_8)">
<path d="M45.8371 24.6941C44.5063 23.481 43.0145 22.8857 41.2748 22.8731H40.8657C40.3054 22.8731 39.7255 22.8633 39.1666 22.8801C38.9619 22.898 38.7557 22.8713 38.5622 22.8019C38.3688 22.7325 38.1927 22.622 38.046 22.4781C37.9092 22.328 37.8063 22.1503 37.7442 21.9569C37.6821 21.7636 37.6622 21.5592 37.686 21.3575C37.693 21.2482 37.686 21.1194 37.686 20.9835C37.6776 20.7771 37.6809 20.5704 37.6958 20.3643C37.7546 19.6892 37.5697 19.2956 37.0445 19.0126H36.3217C35.8048 19.2928 35.6213 19.692 35.6633 20.3826C35.6633 20.454 35.6801 20.5464 35.6927 20.6445C35.7557 21.1208 35.8608 21.9164 35.2725 22.5019C34.7262 23.0398 33.9992 22.9544 33.565 22.9025C33.468 22.8882 33.3702 22.8798 33.2722 22.8773C31.5619 22.8857 29.8263 22.8773 28.1468 22.8773H26.5457C26.1003 22.8773 25.6394 22.8773 25.2682 22.4935C24.897 22.1097 24.911 21.6783 24.911 21.2132C24.911 21.1404 24.911 21.0661 24.911 20.9933C24.8983 20.7796 24.8983 20.5654 24.911 20.3517C24.9699 19.6808 24.7864 19.2886 24.2597 19.0056H23.5369C23.02 19.2858 22.8365 19.685 22.8785 20.3756C22.8785 20.447 22.8953 20.5394 22.9079 20.6375C22.971 21.1124 23.076 21.9094 22.4877 22.4949C21.9414 23.0328 21.2144 22.9474 20.7802 22.8955C20.6832 22.881 20.5854 22.8726 20.4874 22.8703C18.8065 22.8787 17.0962 22.8703 15.4447 22.8703H13.8618C13.4164 22.8703 12.9555 22.8703 12.5843 22.4865C12.2131 22.1027 12.2271 21.6797 12.2257 21.2146C12.2257 21.1418 12.2257 21.0745 12.2257 20.9961C12.2159 20.7799 12.2192 20.5633 12.2355 20.3475C12.2957 19.6766 12.1122 19.2844 11.5856 19.0014H10.8628C10.3459 19.2816 10.1624 19.6822 10.2044 20.3742C10.2044 20.4456 10.2212 20.538 10.2338 20.6347C10.2969 21.1138 10.4047 21.9164 9.79818 22.5005C9.24768 23.03 8.51788 22.9432 8.08224 22.8913C7.9852 22.8773 7.88747 22.8684 7.78948 22.8647C6.5372 22.8549 5.50484 22.8773 4.55372 23.2485C2.02394 24.2389 0.550332 26.008 0.0460572 28.6555C0.0357717 28.7098 0.0226806 28.7636 0.00683594 28.8166V61.1616C0.317806 62.8509 1.0434 64.1943 2.22285 65.2686C3.20338 66.1637 4.39263 66.731 5.84662 67.0014H22.1095C22.6208 66.7212 22.7244 66.4411 22.7539 66.1833C22.7776 66.0379 22.7697 65.8891 22.7308 65.747C22.6919 65.6048 22.6228 65.4728 22.5283 65.3597C22.4198 65.2479 22.2887 65.1605 22.1438 65.1033C21.9989 65.046 21.8435 65.0203 21.6879 65.0277C19.3962 65.0277 17.1046 65.0277 14.8129 65.0277C12.2915 65.0277 9.77017 65.0277 7.24879 65.0277C5.83822 65.0277 4.712 64.6677 3.80571 63.9295C2.57584 62.9294 1.98471 61.5482 1.98471 59.709V53.4784C1.98471 45.9582 1.98471 38.4379 1.98471 30.9177C1.97996 30.2974 2.00942 29.6773 2.07296 29.0603C2.28868 27.081 4.06205 25.2516 6.02452 24.9813C6.70362 24.9014 7.38742 24.8687 8.07104 24.8832C8.31897 24.8832 8.56551 24.8832 8.81344 24.8832C9.00238 24.8708 9.19184 24.898 9.36964 24.9631C9.54743 25.0282 9.70963 25.1299 9.84581 25.2614C9.9794 25.4045 10.0819 25.5737 10.147 25.7584C10.2121 25.943 10.2383 26.1391 10.224 26.3344C10.2114 26.8457 10.2114 27.3528 10.224 27.843C10.2299 28.0979 10.3362 28.3401 10.5199 28.517C10.7035 28.6938 10.9496 28.7909 11.2045 28.7871H11.2116C11.4714 28.7951 11.7238 28.6995 11.9132 28.5214C12.1025 28.3433 12.2135 28.0973 12.2215 27.8374C12.2355 27.3275 12.2355 26.8191 12.2215 26.3288C12.2071 26.1369 12.2323 25.9441 12.2957 25.7623C12.3591 25.5806 12.4592 25.4139 12.5899 25.2726C12.7241 25.1408 12.8841 25.0381 13.0598 24.9708C13.2355 24.9036 13.4231 24.8733 13.6111 24.8818H13.6181C15.9994 24.8818 18.5768 24.8902 21.5156 24.8818C21.7024 24.8733 21.889 24.9033 22.0638 24.9701C22.2385 25.0368 22.3976 25.1389 22.5311 25.2698C22.6588 25.4045 22.7572 25.5641 22.8201 25.7386C22.883 25.9132 22.9091 26.0989 22.8967 26.284C22.8841 26.8359 22.8841 27.3458 22.8967 27.8444C22.8998 27.971 22.9278 28.0957 22.9791 28.2115C23.0304 28.3272 23.104 28.4317 23.1958 28.519C23.2875 28.6063 23.3955 28.6746 23.5136 28.7202C23.6318 28.7657 23.7577 28.7875 23.8843 28.7843C24.0131 28.7881 24.1413 28.7664 24.2617 28.7205C24.3821 28.6747 24.4923 28.6055 24.5859 28.5171C24.6796 28.4286 24.7549 28.3226 24.8076 28.205C24.8602 28.0874 24.8892 27.9606 24.8928 27.8318C24.9068 27.2981 24.9068 26.8051 24.8928 26.3246C24.8779 26.1334 24.9029 25.9412 24.966 25.7601C25.0292 25.5791 25.1292 25.4131 25.2598 25.2726C25.396 25.1398 25.5581 25.0365 25.7359 24.969C25.9138 24.9016 26.1036 24.8714 26.2936 24.8804C28.7351 24.8804 31.3503 24.8888 34.2892 24.8804C34.4763 24.8708 34.6634 24.9004 34.8385 24.9672C35.0137 25.034 35.1729 25.1366 35.3061 25.2684C35.434 25.4043 35.5325 25.5651 35.5955 25.7409C35.6584 25.9166 35.6843 26.1034 35.6717 26.2896C35.6577 26.7981 35.6633 27.3191 35.6717 27.7618C35.6815 28.3613 36.0919 28.7815 36.6648 28.7829C37.2588 28.7829 37.665 28.3627 37.6734 27.7422V27.7086C37.6804 27.2295 37.686 26.777 37.6734 26.3232C37.6572 26.1298 37.6821 25.9352 37.7466 25.7522C37.811 25.5692 37.9136 25.4019 38.0474 25.2614C38.1862 25.1272 38.3518 25.0237 38.5333 24.9578C38.7148 24.8919 38.9082 24.8651 39.1008 24.879C39.3697 24.879 39.6401 24.879 39.9272 24.879C40.2816 24.879 40.6472 24.879 41.0184 24.8874C42.3127 24.942 43.3465 25.2992 44.1814 25.98C45.4084 26.9816 46.0023 28.3459 46.0023 30.1501C46.0023 31.5789 46.0023 33.0076 46.0023 34.4364C46.0023 36.5684 46.0023 38.7004 46.0023 40.8323C45.9966 40.9721 46.0198 41.1115 46.0704 41.2419C46.121 41.3723 46.198 41.4908 46.2965 41.5901C46.402 41.6855 46.5259 41.7582 46.6606 41.8037C46.7953 41.8492 46.9378 41.8666 47.0795 41.8549C47.3457 41.8423 47.6524 41.7792 47.9746 41.2021V28.7437C47.6903 27.06 46.9815 25.7335 45.8371 24.6941Z" fill="black"/>
<path d="M47.9339 57.7521C47.9521 57.6513 47.9745 57.5504 47.9955 57.4509V57.4355V54.9142C47.9633 54.7629 47.9339 54.6116 47.9031 54.4617C47.8246 54.0709 47.7504 53.7025 47.6593 53.3411C46.2768 47.8543 40.4426 44.2795 34.9124 45.5374C29.2253 46.8317 25.6505 51.9277 26.4125 57.6513C26.893 61.2624 28.8387 64.0191 32.1949 65.8457C33.4276 66.5153 34.8017 66.8193 35.8789 67.007H38.4409C39.5811 66.8011 40.783 66.5293 41.8882 65.9634C45.2976 64.2194 47.2713 61.5342 47.9339 57.7521ZM37.19 64.9969H37.1424C32.2215 64.9717 28.3596 61.1027 28.3512 56.1875C28.3419 55.0306 28.5623 53.8835 28.9997 52.8125C29.4371 51.7415 30.0827 50.768 30.8992 49.9484C32.5668 48.3001 34.809 47.3631 37.1536 47.3346H37.1956C39.5425 47.3646 41.7863 48.3041 43.4542 49.9554C44.2698 50.7746 44.9142 51.7479 45.35 52.8185C45.7857 53.8892 46.0041 55.0358 45.9924 56.1917C45.9986 57.3558 45.7736 58.5096 45.3305 59.5861C44.8873 60.6627 44.2348 61.6405 43.4108 62.4629C42.5913 63.2733 41.6201 63.9141 40.5526 64.3487C39.4852 64.7833 38.3425 65.0031 37.19 64.9955V64.9969Z" fill="black"/>
<path d="M11.2442 37.5097H11.2316C11.1011 37.5048 10.971 37.5261 10.8488 37.5722C10.7266 37.6183 10.6148 37.6884 10.5201 37.7783C10.4254 37.8682 10.3496 37.9761 10.2971 38.0957C10.2447 38.2153 10.2166 38.3442 10.2147 38.4748C10.2067 38.6064 10.2254 38.7383 10.2696 38.8626C10.3138 38.9868 10.3827 39.1009 10.472 39.1979C10.5613 39.295 10.6693 39.373 10.7895 39.4273C10.9096 39.4817 11.0395 39.5112 11.1714 39.5142C11.3106 39.52 11.4496 39.4982 11.5804 39.4501C11.7111 39.402 11.8311 39.3286 11.9334 39.234C12.0249 39.1421 12.0968 39.0328 12.145 38.9124C12.1931 38.7921 12.2165 38.6632 12.2136 38.5336C12.2194 38.4022 12.1987 38.2709 12.1528 38.1476C12.1068 38.0244 12.0365 37.9116 11.9461 37.8161C11.8556 37.7205 11.7469 37.6442 11.6263 37.5915C11.5057 37.5389 11.3758 37.511 11.2442 37.5097Z" fill="black"/>
<path d="M19.7455 37.5097H19.7287C19.4557 37.5021 19.1908 37.6028 18.9919 37.7898C18.8994 37.8813 18.8263 37.9904 18.777 38.1108C18.7277 38.2311 18.7031 38.3602 18.7047 38.4902C18.7 38.6219 18.7219 38.7532 18.7691 38.8762C18.8162 38.9992 18.8877 39.1115 18.9792 39.2063C19.0708 39.3011 19.1805 39.3765 19.3018 39.4279C19.4231 39.4794 19.5535 39.5058 19.6853 39.5058H19.6951C19.8259 39.5103 19.9564 39.4885 20.0787 39.4418C20.201 39.395 20.3127 39.3243 20.4072 39.2337C20.5018 39.143 20.5772 39.0344 20.6291 38.9142C20.6809 38.794 20.7082 38.6646 20.7092 38.5336C20.7151 38.4027 20.6946 38.2719 20.6489 38.1489C20.6033 38.026 20.5335 37.9135 20.4437 37.8181C20.3538 37.7226 20.2458 37.6461 20.1258 37.5931C20.0059 37.5402 19.8766 37.5118 19.7455 37.5097Z" fill="black"/>
<path d="M28.1875 39.5142C28.3186 39.5179 28.4491 39.4953 28.5714 39.4477C28.6936 39.4001 28.805 39.3285 28.899 39.2371C28.9931 39.1456 29.0678 39.0363 29.1188 38.9155C29.1699 38.7946 29.1961 38.6648 29.1961 38.5336C29.2014 38.4016 29.1799 38.2699 29.133 38.1463C29.0861 38.0228 29.0147 37.91 28.9231 37.8148C28.8315 37.7195 28.7216 37.6438 28.6 37.5921C28.4785 37.5404 28.3477 37.5138 28.2155 37.5139H28.2043C28.0736 37.509 27.9432 37.5304 27.8208 37.5767C27.6984 37.623 27.5866 37.6933 27.4918 37.7835C27.397 37.8737 27.3213 37.9819 27.269 38.1019C27.2167 38.2218 27.1889 38.351 27.1873 38.4818C27.1819 38.6193 27.2038 38.7565 27.2519 38.8854C27.3 39.0143 27.3733 39.1323 27.4675 39.2326C27.5619 39.3263 27.6745 39.3996 27.7983 39.448C27.9222 39.4965 28.0546 39.519 28.1875 39.5142Z" fill="black"/>
<path d="M36.6555 39.5142C36.7924 39.52 36.9291 39.4982 37.0574 39.4501C37.1856 39.402 37.3029 39.3285 37.4021 39.234C37.4941 39.1396 37.5662 39.0278 37.6143 38.9051C37.6624 38.7824 37.6856 38.6514 37.6823 38.5196C37.6857 38.3879 37.6625 38.2569 37.6141 38.1343C37.5658 38.0118 37.4932 37.9003 37.4008 37.8064C37.3083 37.7125 37.1979 37.6382 37.0761 37.588C36.9544 37.5377 36.8237 37.5125 36.692 37.5139C36.5609 37.5101 36.4303 37.5327 36.3081 37.5803C36.1859 37.6279 36.0745 37.6995 35.9804 37.791C35.8864 37.8824 35.8116 37.9918 35.7606 38.1126C35.7096 38.2334 35.6833 38.3633 35.6834 38.4944C35.6781 38.6257 35.6993 38.7568 35.7457 38.8797C35.7921 39.0027 35.8627 39.1151 35.9534 39.2102C36.0441 39.3054 36.153 39.3813 36.2736 39.4335C36.3942 39.4857 36.5241 39.5131 36.6555 39.5142Z" fill="black"/>
<path d="M11.2357 45.9983H11.2273C11.0957 45.9938 10.9646 46.0158 10.8417 46.0631C10.7189 46.1103 10.6068 46.1818 10.5121 46.2733C10.4175 46.3648 10.3422 46.4745 10.2909 46.5957C10.2395 46.7169 10.2131 46.8472 10.2131 46.9788C10.2065 47.1106 10.2266 47.2424 10.2721 47.3662C10.3176 47.49 10.3877 47.6034 10.4781 47.6996C10.5684 47.7957 10.6773 47.8726 10.7981 47.9257C10.9189 47.9787 11.0491 48.0069 11.1811 48.0084C11.3188 48.014 11.4562 47.9921 11.5854 47.944C11.7145 47.8959 11.8328 47.8225 11.9333 47.7282C12.0254 47.6351 12.0977 47.5243 12.1458 47.4025C12.194 47.2807 12.217 47.1504 12.2134 47.0195C12.2189 46.8876 12.1977 46.7559 12.151 46.6324C12.1044 46.5089 12.0333 46.3961 11.942 46.3007C11.8507 46.2054 11.7411 46.1294 11.6197 46.0775C11.4983 46.0255 11.3677 45.9986 11.2357 45.9983Z" fill="black"/>
<path d="M19.7407 45.9983H19.7281C19.5977 45.9929 19.4676 46.0135 19.3452 46.0591C19.2229 46.1046 19.111 46.1741 19.0158 46.2634C18.9207 46.3528 18.8444 46.4602 18.7914 46.5795C18.7383 46.6987 18.7096 46.8274 18.707 46.9578C18.7012 47.0968 18.723 47.2356 18.7711 47.3661C18.8191 47.4967 18.8926 47.6164 18.9871 47.7184C19.0791 47.8098 19.1885 47.8816 19.3088 47.9298C19.4291 47.9779 19.5579 48.0013 19.6875 47.9986H19.6959C19.8272 48.0027 19.9581 47.9804 20.0806 47.933C20.2031 47.8856 20.3149 47.814 20.4092 47.7225C20.5036 47.6311 20.5786 47.5216 20.6298 47.4005C20.681 47.2795 20.7073 47.1495 20.7072 47.0181C20.7125 46.8872 20.6915 46.7566 20.6454 46.634C20.5994 46.5114 20.5293 46.3993 20.4392 46.3042C20.3491 46.2092 20.2409 46.1331 20.1209 46.0806C20.0009 46.0281 19.8717 46.0001 19.7407 45.9983Z" fill="black"/>
<path d="M11.2457 54.4884H11.2317C11.1012 54.4835 10.971 54.5047 10.8489 54.5509C10.7267 54.597 10.6149 54.6671 10.5202 54.757C10.4255 54.8469 10.3497 54.9548 10.2972 55.0744C10.2447 55.194 10.2167 55.3229 10.2148 55.4535C10.2066 55.5852 10.2252 55.7173 10.2693 55.8417C10.3134 55.9661 10.3822 56.0804 10.4715 56.1775C10.5609 56.2747 10.6689 56.3529 10.7892 56.4073C10.9095 56.4617 11.0395 56.4913 11.1715 56.4942C11.3107 56.4999 11.4496 56.4781 11.5804 56.43C11.7111 56.3819 11.8311 56.3086 11.9335 56.2141C12.025 56.1223 12.097 56.0129 12.1452 55.8925C12.1933 55.7722 12.2166 55.6433 12.2137 55.5137C12.2197 55.3823 12.1992 55.251 12.1534 55.1276C12.1076 55.0043 12.0375 54.8914 11.9472 54.7957C11.8569 54.7001 11.7482 54.6235 11.6277 54.5707C11.5072 54.5179 11.3773 54.4899 11.2457 54.4884Z" fill="black"/>
<path d="M19.7407 54.4883H19.7281C19.5977 54.4829 19.4676 54.5036 19.3452 54.5491C19.2229 54.5946 19.1109 54.6641 19.0158 54.7534C18.9207 54.8428 18.8444 54.9503 18.7914 55.0695C18.7383 55.1887 18.7096 55.3174 18.707 55.4479C18.7012 55.5866 18.723 55.7252 18.7711 55.8555C18.8192 55.9858 18.8926 56.1053 18.9871 56.2071C19.0791 56.2983 19.1885 56.3702 19.3088 56.4183C19.4292 56.4664 19.5579 56.4899 19.6875 56.4872C19.8189 56.4915 19.9499 56.4694 20.0726 56.422C20.1953 56.3747 20.3073 56.3032 20.4018 56.2117C20.4962 56.1202 20.5714 56.0106 20.6226 55.8895C20.6739 55.7684 20.7003 55.6382 20.7002 55.5067C20.7053 55.3765 20.6844 55.2467 20.6387 55.1247C20.593 55.0027 20.5234 54.891 20.4341 54.7962C20.3448 54.7014 20.2374 54.6254 20.1184 54.5725C19.9993 54.5196 19.871 54.491 19.7407 54.4883Z" fill="black"/>
<path d="M38.1749 52.1561C38.1762 52.0269 38.1518 51.8988 38.103 51.7793C38.0541 51.6597 37.982 51.5511 37.8907 51.4598C37.7993 51.3685 37.6907 51.2963 37.5712 51.2475C37.4516 51.1987 37.3235 51.1742 37.1944 51.1755H37.186C37.0547 51.1714 36.9238 51.1937 36.8013 51.2411C36.6787 51.2886 36.567 51.3601 36.4726 51.4516C36.3783 51.5431 36.3033 51.6526 36.2521 51.7736C36.2009 51.8946 36.1746 52.0247 36.1746 52.1561C36.1662 52.6253 36.1746 53.1072 36.1746 53.575C36.1746 53.7768 36.1746 53.9799 36.1746 54.183C36.1746 54.4071 36.1746 54.6312 36.1746 54.8539C36.1746 55.3162 36.1746 55.7925 36.1746 56.2547C36.1812 56.4953 36.2788 56.7244 36.4478 56.8958C36.6169 57.0672 36.8446 57.168 37.0851 57.1778C38.1245 57.1988 39.1429 57.1974 40.1122 57.1778C40.3411 57.1617 40.5567 57.0646 40.7205 56.9039C40.8843 56.7433 40.9855 56.5295 41.0059 56.3009C41.0381 55.7406 40.6949 55.256 40.206 55.1887C40.005 55.1681 39.8026 55.1643 39.6009 55.1775C39.4118 55.1938 39.2213 55.1697 39.0421 55.107C38.863 55.0442 38.6992 54.9441 38.5615 54.8133C38.4279 54.6775 38.3246 54.5149 38.2585 54.3362C38.1923 54.1575 38.1648 53.9668 38.1777 53.7768C38.1875 53.2697 38.1861 52.7402 38.1749 52.1561Z" fill="black"/>
</g>
<defs>
<clipPath id="clip0_102_8">
<rect width="48" height="48" fill="white" transform="translate(0 19)"/>
</clipPath>
</defs>
</svg>
